<svg xmlns="http://www.w3.org/2000/svg" width="178.937" height="26.196" viewBox="0 0 178.937 26.196">
  <g id="Group_401" data-name="Group 401" transform="translate(-880.757 -4665.512)">
    <g id="Group_395" data-name="Group 395" transform="translate(238.9 829.208)">
      <path id="Icon_awesome-instagram" data-name="Icon awesome-instagram" d="M12.755,8.452a6.54,6.54,0,1,0,6.54,6.54A6.53,6.53,0,0,0,12.755,8.452Zm0,10.792a4.252,4.252,0,1,1,4.252-4.252A4.26,4.26,0,0,1,12.755,19.244ZM21.087,8.184a1.525,1.525,0,1,1-1.525-1.525A1.522,1.522,0,0,1,21.087,8.184Zm4.332,1.548a7.549,7.549,0,0,0-2.06-5.345,7.6,7.6,0,0,0-5.345-2.06c-2.106-.12-8.418-.12-10.524,0A7.588,7.588,0,0,0,2.145,4.382,7.574,7.574,0,0,0,.084,9.727c-.12,2.106-.12,8.418,0,10.524A7.549,7.549,0,0,0,2.145,25.6a7.608,7.608,0,0,0,5.345,2.06c2.106.12,8.418.12,10.524,0a7.549,7.549,0,0,0,5.345-2.06,7.6,7.6,0,0,0,2.06-5.345c.12-2.106.12-8.413,0-10.519ZM22.7,22.511a4.3,4.3,0,0,1-2.425,2.425c-1.679.666-5.663.512-7.519.512s-5.846.148-7.519-.512a4.3,4.3,0,0,1-2.425-2.425c-.666-1.679-.512-5.663-.512-7.519s-.148-5.846.512-7.519A4.3,4.3,0,0,1,5.236,5.048c1.679-.666,5.663-.512,7.519-.512s5.846-.148,7.519.512A4.3,4.3,0,0,1,22.7,7.473c.666,1.679.512,5.663.512,7.519S23.364,20.837,22.7,22.511Z" transform="translate(681.348 3834.754)" fill="#fff"/>
    </g>
    <path id="Path_715" data-name="Path 715" d="M80.435,111.689a12.982,12.982,0,0,0-12.423,8.79h1.841a10.406,10.406,0,0,1,.685-1.454H74.08a14.566,14.566,0,0,0-.387,1.454h1.795a13.526,13.526,0,0,1,.452-1.454h3.419v1.454h1.733v-1.454h3.694a12.632,12.632,0,0,1,.507,1.454h1.795a14.149,14.149,0,0,0-.433-1.454h3.678a10.4,10.4,0,0,1,.685,1.454h1.837A12.977,12.977,0,0,0,80.435,111.689Zm2.614,2.011a11.315,11.315,0,0,1,6.076,3.617H85.911A12.014,12.014,0,0,0,83.049,113.7Zm-5.736.126a11.356,11.356,0,0,0-2.553,3.491H71.744A11.292,11.292,0,0,1,77.313,113.825Zm3.779.549a9.906,9.906,0,0,1,2.8,2.941h-2.8Zm-1.733.011v2.93H76.749A9.088,9.088,0,0,1,79.359,114.386ZM68.53,122.13a.748.748,0,0,0-.433.118.35.35,0,0,0-.174.294A1.115,1.115,0,0,0,68,122.9l.92,2.609c.028.078.06.166.1.259a.889.889,0,0,0,.147.248.6.6,0,0,0,.244.168,1.038,1.038,0,0,0,.387.061.9.9,0,0,0,.46-.1.628.628,0,0,0,.244-.225,4.071,4.071,0,0,0,.17-.385l.824-2.289.82,2.3c.068.17.123.3.166.378a.61.61,0,0,0,.24.225.92.92,0,0,0,.464.1.906.906,0,0,0,.476-.1.619.619,0,0,0,.236-.237,3.745,3.745,0,0,0,.159-.4l.92-2.609a1.239,1.239,0,0,0,.085-.359.348.348,0,0,0-.178-.294.753.753,0,0,0-.429-.118.688.688,0,0,0-.391.092.525.525,0,0,0-.186.2,2.115,2.115,0,0,0-.1.286l-.65,2.22-.727-2.079a3.861,3.861,0,0,0-.166-.382.66.66,0,0,0-.244-.233.936.936,0,0,0-.491-.107.986.986,0,0,0-.491.1.668.668,0,0,0-.259.24,2.749,2.749,0,0,0-.166.378l-.723,2.079L69.2,122.7a1.261,1.261,0,0,0-.2-.408A.576.576,0,0,0,68.53,122.13Zm8.907,0a.748.748,0,0,0-.433.118.35.35,0,0,0-.174.294,1.143,1.143,0,0,0,.085.359l.92,2.609c.028.078.06.166.1.259a.88.88,0,0,0,.143.248.6.6,0,0,0,.244.168,1.038,1.038,0,0,0,.387.061.91.91,0,0,0,.464-.1.614.614,0,0,0,.24-.225,4.065,4.065,0,0,0,.17-.385l.824-2.289.82,2.3c.068.17.123.3.166.378a.61.61,0,0,0,.24.225.92.92,0,0,0,.464.1.906.906,0,0,0,.476-.1.619.619,0,0,0,.236-.237,3.747,3.747,0,0,0,.159-.4l.92-2.609a1.24,1.24,0,0,0,.085-.359.348.348,0,0,0-.178-.294.753.753,0,0,0-.429-.118.688.688,0,0,0-.391.092.525.525,0,0,0-.186.2,2.116,2.116,0,0,0-.1.286l-.65,2.22-.727-2.079a3.859,3.859,0,0,0-.166-.382.645.645,0,0,0-.24-.233.936.936,0,0,0-.491-.107,1,1,0,0,0-.5.1.668.668,0,0,0-.259.24,2.749,2.749,0,0,0-.166.378l-.723,2.079L78.11,122.7a1.26,1.26,0,0,0-.193-.408A.586.586,0,0,0,77.437,122.13Zm8.907,0a.748.748,0,0,0-.433.118.35.35,0,0,0-.174.294,1.143,1.143,0,0,0,.085.359l.92,2.609c.028.078.06.166.1.259a.88.88,0,0,0,.143.248.6.6,0,0,0,.244.168,1.038,1.038,0,0,0,.387.061.91.91,0,0,0,.464-.1.614.614,0,0,0,.24-.225,3.884,3.884,0,0,0,.174-.385l.82-2.289.82,2.3c.068.17.123.3.166.378a.61.61,0,0,0,.24.225.92.92,0,0,0,.464.1.906.906,0,0,0,.476-.1.619.619,0,0,0,.236-.237,3.747,3.747,0,0,0,.159-.4l.92-2.609a1.239,1.239,0,0,0,.085-.359.343.343,0,0,0-.174-.294.766.766,0,0,0-.433-.118.688.688,0,0,0-.391.092.525.525,0,0,0-.186.2,2.113,2.113,0,0,0-.1.286l-.646,2.22-.731-2.079a3.861,3.861,0,0,0-.166-.382.645.645,0,0,0-.24-.233.936.936,0,0,0-.491-.107,1,1,0,0,0-.5.1.668.668,0,0,0-.259.24,2.749,2.749,0,0,0-.166.378l-.723,2.079-.65-2.236a1.261,1.261,0,0,0-.2-.408A.586.586,0,0,0,86.344,122.13Zm-18.4,5.543a13.158,13.158,0,0,0,24.977,0H91.094a10.454,10.454,0,0,1-.627,1.423H86.754a14.385,14.385,0,0,0,.4-1.423H85.385a11.831,11.831,0,0,1-.453,1.423h-3.84v-1.423H79.359V129.1H75.852a14.308,14.308,0,0,1-.41-1.423H73.663c.1.482.221.957.36,1.423H70.4a10.472,10.472,0,0,1-.63-1.423H67.946Zm3.593,3.132h3.106a10.848,10.848,0,0,0,2.556,3.72A11.258,11.258,0,0,1,71.539,130.806Zm5.036,0h2.785V134A8.176,8.176,0,0,1,76.575,130.806Zm4.517,0H84.07a9.415,9.415,0,0,1-2.978,3.113Zm4.97,0H89.33a11.292,11.292,0,0,1-6.366,3.9,11.531,11.531,0,0,0,3.1-3.9Z" transform="translate(812.834 4554.512)" fill="#fff"/>
    <path id="Icon_awesome-twitter" data-name="Icon awesome-twitter" d="M23.327,8.643c.017.231.017.462.017.693A15.057,15.057,0,0,1,8.183,24.5,15.058,15.058,0,0,1,0,22.105a11.024,11.024,0,0,0,1.287.066A10.672,10.672,0,0,0,7.9,19.895,5.338,5.338,0,0,1,2.92,16.2a6.72,6.72,0,0,0,1.006.082,5.636,5.636,0,0,0,1.4-.181,5.329,5.329,0,0,1-4.273-5.23V10.8a5.367,5.367,0,0,0,2.409.676,5.337,5.337,0,0,1-1.65-7.127A15.147,15.147,0,0,0,12.8,9.93a6.015,6.015,0,0,1-.132-1.221,5.334,5.334,0,0,1,9.222-3.646,10.491,10.491,0,0,0,3.382-1.287,5.314,5.314,0,0,1-2.343,2.937A10.682,10.682,0,0,0,26,5.888a11.455,11.455,0,0,1-2.673,2.755Z" transform="translate(960 4665.014)" fill="#fff"/>
    <path id="Icon_awesome-facebook-f" data-name="Icon awesome-facebook-f" d="M14.122,14.063l.694-4.524H10.475V6.6a2.262,2.262,0,0,1,2.551-2.444H15V.306A24.068,24.068,0,0,0,11.5,0C7.92,0,5.584,2.167,5.584,6.09V9.538H1.609v4.524H5.584V25h4.891V14.063Z" transform="translate(1044.695 4665.512)" fill="#fff"/>
    <path id="Icon_awesome-youtube" data-name="Icon awesome-youtube" d="M27.486,7.47a3.393,3.393,0,0,0-2.387-2.4C22.993,4.5,14.55,4.5,14.55,4.5S6.107,4.5,4,5.068a3.393,3.393,0,0,0-2.387,2.4,35.589,35.589,0,0,0-.564,6.541,35.589,35.589,0,0,0,.564,6.541A3.342,3.342,0,0,0,4,22.917c2.106.568,10.549.568,10.549.568s8.443,0,10.549-.568a3.342,3.342,0,0,0,2.387-2.364,35.589,35.589,0,0,0,.564-6.541,35.589,35.589,0,0,0-.564-6.541Zm-15.7,10.555V10l7.057,4.015-7.057,4.014Z" transform="translate(998.45 4663.895)" fill="#fff"/>
  </g>
</svg>
