<svg id="Group_184" data-name="Group 184" xmlns="http://www.w3.org/2000/svg" xmlns:xlink="http://www.w3.org/1999/xlink" width="227.472" height="96.446" viewBox="0 0 227.472 96.446">
  <defs>
    <clipPath id="clip-path">
      <rect id="Rectangle_103" data-name="Rectangle 103" width="227.472" height="96.446" fill="none"/>
    </clipPath>
  </defs>
  <g id="Group_182" data-name="Group 182" clip-path="url(#clip-path)">
    <path id="Path_624" data-name="Path 624" d="M70.022,13.921c.14,0,.115-.358.288-.17.177-.123.389-.428.64-.468a5.906,5.906,0,0,0,1.212-1.429c.175.42.27-.13.459-.016a2.658,2.658,0,0,1,.967-1.5c.563.107.468-.923,1-.909.923-.477,1.914-1.634,2.972-2.1.146.03.025-.328.209-.175.037-.246.345-.276.119-.726-.184-.175-.3-.1-.435-.1-.14.212-.51.3-.547.712-.481.053-.653.923-1.209.893.023.228-.163.033-.2.181-.268.552-.831.605-1.133,1.036-.36-.037-.373.631-.663.819a9.082,9.082,0,0,1-1.969,1.078c-.486,0-.728.318-1.142.544a1.985,1.985,0,0,0-1.089.9c-.21.092-.265.53-.461.71-.019.251-.229.521.113.919a1.15,1.15,0,0,0,.866-.193" transform="translate(14.177 1.297)" fill="#fff"/>
    <path id="Path_625" data-name="Path 625" d="M193.151,42.877c-.051,0-.3,0-1.6.125a25.419,25.419,0,0,1-4.129.275h-2.1a6.758,6.758,0,0,1-1.626-.2l-.051-.025h-.049c-1.4-.124-1.577-.149-1.6-.149l-.049.225v-.251h-.251c-.926.1-1.075.7-1.075,1.075s.175,1.026,1.376,1.026q.788-.036,1.577-.149a11.205,11.205,0,0,1,1.576-.125c2.028,0,2.028.726,2.028.977a2.793,2.793,0,0,1-.2.75L178.013,68.4a3.727,3.727,0,0,1-.2.475,2.768,2.768,0,0,1-.2-.475L169.73,48.233l-.55-1.728a3.341,3.341,0,0,1-.2-.975c0-.526.675-.8,1.976-.8h3.178c1.226,0,1.477-.475,1.477-.876,0-.45-.275-.975-1.652-.975q-.676,0-2.252.151c-1.526.149-2.752.224-3.578.224a18.359,18.359,0,0,1-3.553-.224h-.025c-1.226-.125-1.451-.151-1.476-.151l-.051.175v-.2h-.25c-.951.076-1.1.626-1.1.951,0,.4.251.875,1.377.875h1.175a2.575,2.575,0,0,1,2.252,1.077,14.111,14.111,0,0,1,1.2,2.678l8.558,21.644a4.672,4.672,0,0,1,.375,1.4,6.437,6.437,0,0,1-.926,2.552c-1.926,3.753-4.6,5.655-7.982,5.655a6.86,6.86,0,0,1-3.628-1.026c-1.051-.651-1.577-1.377-1.577-2.128,0-.075,0-.25.051-.275.049.025.124.025.2.051a1.939,1.939,0,0,0,.75.175c1.752,0,2.128-1.077,2.128-1.977a2.014,2.014,0,0,0-.676-1.526,2.159,2.159,0,0,0-1.526-.626,2.691,2.691,0,0,0-2.052.977,3.2,3.2,0,0,0-.875,2.227,5.109,5.109,0,0,0,2.1,4.179,8.044,8.044,0,0,0,5.155,1.626,9.119,9.119,0,0,0,7.531-3.553,28.569,28.569,0,0,0,3.6-6.305l9.332-22.495,1.051-2.452a5.019,5.019,0,0,1,.875-1.5A1.779,1.779,0,0,1,191.4,44.7h1.5c1.3,0,1.577-.526,1.577-.975-.075-.3-.251-.851-1.326-.851" transform="translate(32.995 8.809)" fill="#fff"/>
    <path id="Path_626" data-name="Path 626" d="M72.686,8.46c.023-.086.1-.247.172-.21.781-1.214,1.849-1.922,2.682-3.1-.035-.052-.049-.193-.137-.175-.563.4-.914,1.149-1.456,1.649-1.04,1.306-2.49,1.969-3.153,3.623a5.072,5.072,0,0,0,.891-.668,8.668,8.668,0,0,1,1-1.124" transform="translate(14.554 1.023)" fill="#fff"/>
    <path id="Path_627" data-name="Path 627" d="M61.623,33.229c-.468-1.283-.633-1.408-.9-1.31-.211.076-.36.3-.631.4h-.021a6.379,6.379,0,0,1,1.144,2.069c.319.963.319,1.362-.931,1.784L55.218,37.9c-.546.184-.581.293-.458.645.007.023.016.043.023.066A2.205,2.205,0,0,0,57.622,39.9,2.091,2.091,0,0,0,59.031,38.5c.426-.934.615-1.139,1.3-1.373a1.373,1.373,0,0,1,1.852.751c.125-.033.238-.037.353-.059a1.989,1.989,0,0,0,.338-.033c.254-.092.3-.344-.158-1.581Z" transform="translate(11.245 6.556)" fill="#fff"/>
    <path id="Path_628" data-name="Path 628" d="M39.557,32.984c.385.958.727,1.2,1.25,1s.561-.68.274-1.431l-.271-.7a1.227,1.227,0,0,1-.061-.156,1.165,1.165,0,0,1,.76-1.464c.78-.3,1.568.151,2.144,1.629.054.158.1.318.142.481l.118-.018a1.641,1.641,0,0,0,.344-.03c.247-.084.3-.335-.156-1.587l-1.084-2.979c-.468-1.286-.635-1.414-.9-1.316-.207.075-.363.293-.633.393a.859.859,0,0,1-.7-.035,1.772,1.772,0,0,1-.936.657l-1.684.651v0c-.391.153-.338.421-.075,1.128Z" transform="translate(7.788 5.425)" fill="#fff"/>
    <path id="Path_629" data-name="Path 629" d="M56.782,42.052c.6-.225,1.354-.28,2.042-.545a5.2,5.2,0,0,0,.5-.23,5.331,5.331,0,0,1-6.093-2.468A4.486,4.486,0,0,1,50.4,43.762a4.62,4.62,0,0,1-3.1-.251l.25.656c.453,1.173.661,1.4.926,1.291a.851.851,0,0,0,.278-.2,2.152,2.152,0,0,1,.345-.2c.679-.26,1.112.2,1.361.817a1.305,1.305,0,0,1-.661,1.889c-.212.083-.428.148-.638.213a.4.4,0,0,0,.028.163,4.375,4.375,0,0,0,.382.685l2.5,3.969h.04l-1.086-6.48c-.252-1.579-.092-2.019,1.449-2.621,1.875-.715,2.119-.512,3.155,1.124l3.35,5.32.037-.016-.708-4.9a2.4,2.4,0,0,0-.1-.576c-.123-.307-.373-.23-.623-.137a1.111,1.111,0,0,1-1.468-.751,1.162,1.162,0,0,1,.665-1.7" transform="translate(9.724 7.978)" fill="#fff"/>
    <path id="Path_630" data-name="Path 630" d="M46.757,31.583a.849.849,0,0,0,.28-.2,1.284,1.284,0,0,1,.346-.193c-.035-.08-.077-.14-.107-.222-1.787-4.91,5.565-4.695,4.563-7.43a1.336,1.336,0,0,0-1.831-.645c-.338.128-.651.31-.5.723a2.473,2.473,0,0,1,.151,1.654,1.886,1.886,0,0,1-1.112,1.206,1.45,1.45,0,0,1-1.942-.821,2,2,0,0,1-.042-.9l-.165.063c-2.157.784-1.113,3.831-.538,5.444.445,1.221.647,1.407.9,1.316" transform="translate(9.271 4.682)" fill="#fff"/>
    <path id="Path_631" data-name="Path 631" d="M49.609,28.587c.265.726.936.763,1.536.545a1.806,1.806,0,0,0,1.114-2.611l-.165-.458c-.36.85-2.885,1.417-2.485,2.524" transform="translate(10.19 5.358)" fill="#fff"/>
    <path id="Path_632" data-name="Path 632" d="M48.765,41.8c.989-.391,1.652-1.544.851-3.6-.781-2.013-2.065-2.457-3.073-2.066s-1.319,1.714-.626,3.5c.758,1.947,1.927,2.52,2.848,2.162" transform="translate(9.363 7.403)" fill="#fff"/>
    <path id="Path_633" data-name="Path 633" d="M44.932,51.1a1.5,1.5,0,0,0-2.047-.645c-1.04.422-1.573,1.568-1.361,2.1v0c.113.265.381.18.977-.058l2.062-.838c.468-.186.461-.328.37-.553" transform="translate(8.527 10.341)" fill="#fff"/>
    <path id="Path_634" data-name="Path 634" d="M54.957,35.2l2.1-.716c.483-.159.479-.3.4-.533a1.5,1.5,0,0,0-2.007-.773c-1.063.365-1.661,1.479-1.479,2.022.1.28.371.2.979,0" transform="translate(11.09 6.798)" fill="#fff"/>
    <path id="Path_635" data-name="Path 635" d="M186.287,60.293c1.4-2.276,3.653-3.427,6.756-3.427a6.59,6.59,0,0,1,4.353,1.4,4.408,4.408,0,0,1,1.626,3.578c0,1.1-.175,1.726-.475,1.752a1.482,1.482,0,0,1-.476-.275,1.636,1.636,0,0,0-1.05-.376,1.728,1.728,0,0,0-1.952,1.928c0,.95.4,2.076,2.252,2.076a3.245,3.245,0,0,0,2.678-1.4,5.526,5.526,0,0,0,1.026-3.4,6.363,6.363,0,0,0-2.177-5.1,8.267,8.267,0,0,0-5.63-1.927,9.634,9.634,0,0,0-8.457,4.7v-2.7a1.289,1.289,0,0,0-1.426-1.452h-.326a.687.687,0,0,1-.225.025h-.025c-.775.075-1.376.124-1.776.124h-.851c-.45,0-.875-.024-1.276-.049-.876-.075-1.477-.1-1.8-.1-1.05,0-1.2.6-1.2.975s.175.977,1.377.977l1.65-.176h1.828a2.538,2.538,0,0,1,1.326.251c.275.175.624.726.725,3.127V73.03c0,4.279-.149,6.88-.424,7.757-.251.775-1.051,1.15-2.377,1.15H177.88a11.961,11.961,0,0,0,.9-1.8,7.377,7.377,0,0,0,.626-2.6c0-.676-.326-1.026-.926-1.026-.375,0-.85.2-1.075,1.126a8.568,8.568,0,0,0-.275,1.4,8.282,8.282,0,0,1-1.626,3.027,10.816,10.816,0,0,1-15.864.276,12.869,12.869,0,0,1-2.978-8.783c0-.751.1-.926.125-.951s.125-.125.8-.125H177.33a4.568,4.568,0,0,0,1.75-.25c.451-.2.676-.726.676-1.628A12.445,12.445,0,0,0,176.3,61.77a11.349,11.349,0,0,0-8.533-3.6,12.055,12.055,0,0,0-9.458,4.179,15.8,15.8,0,0,0-3.653,10.76,15.8,15.8,0,0,0,2.352,8.783h-.5c-1.326,0-2.128-.4-2.377-1.2-.3-.876-.426-3.478-.426-7.733V47.083a3.63,3.63,0,0,0-.125-1.277c-.125-.3-.45-.65-1.251-.65H146c-1.05,0-1.2.6-1.2.95,0,.426.251.951,1.377.951.049,0,.175,0,1.7-.125.651-.049,1.277-.1,1.8-.1.977,0,1.526.276,1.7.826a28.6,28.6,0,0,1,.325,5.981V73c0,4.279-.151,6.906-.426,7.757-.251.775-1.051,1.175-2.377,1.175h-.575a.707.707,0,0,0-.225,0H143.65c-1.326,0-2.127-.4-2.376-1.2-.3-.875-.426-3.478-.426-7.731V47.083a3.63,3.63,0,0,0-.125-1.277,1.182,1.182,0,0,0-1.226-.65h-6.33c-1.051,0-1.2.6-1.2.95,0,.426.25.951,1.376.951.051,0,.176,0,1.7-.125.65-.049,1.275-.1,1.8-.1.951,0,1.526.276,1.7.826a30.666,30.666,0,0,1,.326,5.981V73c0,4.279-.149,6.906-.426,7.757-.25.775-1.05,1.175-2.376,1.175h-1.326a9.936,9.936,0,0,0,.875-4.153v-.526c0-1.126-.5-1.376-.926-1.376a.777.777,0,0,0-.6.25,2.259,2.259,0,0,0-.375,1.6v1c0,2.578-.926,3.828-2.8,3.828-1.7,0-2.6-1.4-2.7-4.253V64.5c0-3.278-.951-5.73-2.828-7.306a10.734,10.734,0,0,0-7.006-2.1,12.45,12.45,0,0,0-7.282,2.052,6.211,6.211,0,0,0-2.978,5.2,3.5,3.5,0,0,0,1,2.477,3.184,3.184,0,0,0,2.376,1.051,2.869,2.869,0,0,0,1.977-.751A2.409,2.409,0,0,0,114.3,63.3a1.779,1.779,0,0,0-1.952-2.027,1.741,1.741,0,0,0-1.752,1.1,2.09,2.09,0,0,0-.1.3.419.419,0,0,1-.125.1c-.075,0-.25-.049-.25-.626a4.418,4.418,0,0,1,2.327-3.828,10.93,10.93,0,0,1,6.056-1.552,9.118,9.118,0,0,1,5.63,1.626,5.061,5.061,0,0,1,2.076,4.253,4.188,4.188,0,0,1-1.9,3.8c-1.277.826-3.453,1.351-6.405,1.526a38.3,38.3,0,0,0-4.78.551,8.638,8.638,0,0,0-4.879,2.752,7.515,7.515,0,0,0-1.852,5.054,6.939,6.939,0,0,0,.025.726l-.025-.025v.025a9.634,9.634,0,0,0-1.35-.65c-2.128-.851-5.506-1.326-10.009-1.4H92.187c-2.16-1.672-5.728-3.43-6-6.33.143,0,.242-.024.365-.024h.224a11.452,11.452,0,0,0,8.358,3.127,11.235,11.235,0,0,0,7.557-2.5,8.437,8.437,0,0,0,2.9-6.631,9.413,9.413,0,0,0-.975-4.279L103.49,56.14a3.86,3.86,0,0,1-.426-1.676,3.173,3.173,0,0,1,1-2.477,3.774,3.774,0,0,1,2.7-.926,3.3,3.3,0,0,1,1.8.475,1.151,1.151,0,0,1,.7.951c0,.175-.049.2-.125.2h-.1l-.124-.025a4.582,4.582,0,0,0-.551-.125c-.751,0-1.652.3-1.652,1.8a1.739,1.739,0,0,0,1.952,1.927,2.386,2.386,0,0,0,1.877-.9,3.167,3.167,0,0,0,.75-2.077,3.581,3.581,0,0,0-1.3-2.852,4.89,4.89,0,0,0-3.278-1.126,5.658,5.658,0,0,0-3.853,1.351,4.339,4.339,0,0,0-1.577,3.353,4.822,4.822,0,0,0,.125,1.026,13.841,13.841,0,0,0-5.6-1.652c-.175,0-.351-.025-.551-.025a15,15,0,0,0-1.826.125h-.049l-.3.037c-.064-.03-.128-.058-.194-.094a2.317,2.317,0,0,1-2.158-2.987,13.246,13.246,0,0,1,1.1-3.136c.6-1.377,3.778-1.051,4.6-1,1.476.1,4.179-.575,5.63-.524,1.8-.3,5.2-.526,5.454-.876a.034.034,0,0,0,0-.047c.194-.346-4.345.1-5.62.127s-3.515.394-4.98.455c-.55.025-1.9.233-2.457-.61a2.246,2.246,0,0,1-.386-1.115,2.426,2.426,0,0,1,.061-.685,9.084,9.084,0,0,0,.245-.919,1.4,1.4,0,0,0-.814-1.571c-1.3-.773-3.2-4.118-3.6-6.57-.277-1.684-.954-4.051-.54-6.051a4.084,4.084,0,0,1,1.382-2.33c.926-.775,3.239-2.346,3.261-2.9.045-.128,0-.216-.165-.247-.94-.172-5.159,2.1-7.329,1.251-1.869-.721-5.377-3.641-4.779-6.975.535-2.98-.26-3.224-.635-3.65-2.638-2.03-5.142,1.438-6.928-.849S75.46,4.9,74.5,4.9c-1.208.013-2.855,3.09-4.318,3.736a4.394,4.394,0,0,1-3.911-.348c-2.612-1.75-3.185-3.5-2.38-5.945.34-1.036.317-1.9-.007-1.934-.421-.055-1.174.235-2.652,1.55a40.337,40.337,0,0,1-3.738,3,4.186,4.186,0,0,1-2.82.8,5.278,5.278,0,0,1-3.786-.868C48.163,2.922,49.219.283,47.9.03s-1.4,1.119-2.32,2.908c-1.359,2.652-2.563,2.229-4.774,1.929-2.133-.288-2.533-1.676-3.8-1.471s-.033,2.885-.468,4.209a2.1,2.1,0,0,1-3.188,1.033c-1.3-.779-2.01-1.989-3.345-1.456-1.058.423-.265,1.343-1.251,3.569s-1.347,3.378-3.931,3.52a4.6,4.6,0,0,0-4,2.652,3.554,3.554,0,0,0-.5,1.26,7.5,7.5,0,0,0-.054,1.526c0,.061,0,.123,0,.184a2.913,2.913,0,0,1-2.306,2.744c-1.661.5-6.042-1.849-6.375-1.124a.682.682,0,0,0-.065.38c0,.539.734.925,1.292,1.568,1.676,1.452,2.277,1.526,2.4,3,.007.082.011.164.014.245.03,1.361-.491,2.705-1.609,3.062a9.5,9.5,0,0,1-4.754-.365c.011.024.023.047.035.072l-.041-.012c.6,1.276,1.237,2.309,1.058,2.914a.781.781,0,0,1-.565.428,24.4,24.4,0,0,1-9.328.483.642.642,0,0,0,.19.084L0,33.345c.5.426,7.031.726,8.333,2.778.756,1.181,1.348,2.348.825,3.342a2.691,2.691,0,0,1-1,.938C6.393,41.46,4.55,41.629,4.312,42.019a.189.189,0,0,0-.058.184c.124.524,3.828.624,5.454.3,1.846.474,1.429,2.315.807,3.367-.621,1.024-2.015,1.444-3.5,1.723-1.269.237-2.555.439-2.741.914a.377.377,0,0,0-.014.376c.324.726,4.228.1,5.8.3s2.6,4.346,2.078,6.375c-.008.025-.016.053-.025.078l0,.017c-.675,1.816-3.994,1.6-5.678,3.12-.007.031-.01.058-.014.086l-.008.007c-.225.926.85.351,1.5.651,1.9.1,2.177.751,2.327,1.826a1,1,0,0,1,0,.288c-.174.675-.928,1.292-.983,1.951a.906.906,0,0,0,.184.739c.751,1,2.2-1.852,4.228-.575,2.377,1.776,3.4,4.328,3.3,5.629a1.889,1.889,0,0,1-.07.386,14.518,14.518,0,0,1-2.556,3.528,5.986,5.986,0,0,0-1.254,1.664,1.071,1.071,0,0,0,.276,1.2c2.152.175,3.128-2.552,4.855-3.353l4.228,3.078c1.277,3.178-.3,3.753.876,5.154.4,1.326-.275,2.328.175,2.9a1.348,1.348,0,0,0,1.377.7c.315.023.75.248.634.731-.049.1-.117.28-.2.508-.154.409-.375,1.065-.637,1.806a28.2,28.2,0,0,1-1.295,3.155c.052-.086.1-.17.158-.254-.071.152-.141.3-.212.436a21.466,21.466,0,0,0,2.427-4.529l.006-.027c.017-.048.037-.1.053-.145,0-.025.011-.051.017-.076.274-.623,1.115-1.014,1.425-.1a1.6,1.6,0,0,1-.064.963,8.632,8.632,0,0,1-.455,1.013,2.546,2.546,0,0,0-.357.785c-.088.253-.121.5,0,.617.251.225,2.778-3.253,4.8-4.228,1.351-.4,3.1,0,3.253,1.6.125,1.251.326,1.626-.675,4.379-.113.451-.3.978-.493,1.555l-.1.291c-.166.493-.339,1.015-.485,1.558,1.151-1.226,2.127-4.054,3.229-4.855a7.035,7.035,0,0,1,3.127-1.226c2.377-.526,2.752,1.552,3.853,2.6.376.4.951.826,1.577.4a14.321,14.321,0,0,1,8.508-3c1.927-.124,5.579,2.352,8.032,4.629C63.281,95.8,62.155,95.3,63.23,96.4c.307.115.463,0,.52-.215.266-.253.074-1.079-.176-1.615a19.2,19.2,0,0,1-1.178-4,5.065,5.065,0,0,1,.486-2.774,5.824,5.824,0,0,1,4.578-2.827c1.526,0,2.927,1.226,4.428,2.377,1.677,1.226,3.729,4.5,4.379,4.279.065-.024.081-.087.06-.181a.206.206,0,0,0,.029-.006c.638-.238-3.127-4.062-3.939-6.312a3.015,3.015,0,0,1,0-2.183c.93-2.094,3.887-3.5,4.78-3.654a8.464,8.464,0,0,1,4.1.977l-.125.225a6.794,6.794,0,0,0-.85,3.327A6.9,6.9,0,0,0,84.3,90.119c2.576,1.452,6.255,2.177,10.909,2.177,4.729,0,8.408-.751,10.909-2.2a7.211,7.211,0,0,0,3.853-6.531,3.827,3.827,0,0,0-.024-.526h.024v-.025a10.57,10.57,0,0,0,5.5,1.376,11.945,11.945,0,0,0,8.708-3.477,15.258,15.258,0,0,0,1.9-2.3v.626c.2,3.4,1.752,5.13,4.629,5.13a4.423,4.423,0,0,0,2.727-.851h1.8l2.352-.049h4.353l2.427.1h.876a3.828,3.828,0,0,0,.526.024l.675-.024a4.183,4.183,0,0,0,.575-.025l1.2-.051,2.2-.024h4.353l2.252.049,1.1.075a11.937,11.937,0,0,0,9.258,3.878,12.822,12.822,0,0,0,6.956-1.9,10.823,10.823,0,0,0,2.3-1.977h.451l2.127-.024,2.277-.1h4.279l2.3.1,1.977.1h.175c.476,0,1.3,0,1.3-.776,0-.4-.25-.875-1.476-.875h-2.6c-1.3,0-2.052-.376-2.327-1.151-.3-.851-.426-3.453-.426-7.757V68.376c0-3.628.526-6.355,1.577-8.082M157.362,67.85a11.292,11.292,0,0,1,3.829-5.88,10.256,10.256,0,0,1,6.431-2.077,9.227,9.227,0,0,1,7.706,3.6,10.691,10.691,0,0,1,2.4,6.605c0,.451-.2.626-.7.626H157.887c-.975,0-.975-.4-.975-.575a8,8,0,0,1,.45-2.3m-68.684-2.5c1.376-.175,5.23.875,5.679-.526l0-.019c0-.013.012-.025.017-.04.456-1.4-1.166-2-2.268-2.637-1.667-.977-2.932-2.637-2.441-4.814a3.769,3.769,0,0,0,.383-.822c.1-.076.2-.125.3-.2a8.438,8.438,0,0,1,3.078-1.126h.076a8.833,8.833,0,0,1,1.826-.125,8.5,8.5,0,0,1,6,2.077,7.292,7.292,0,0,1,2.252,5.554,6.923,6.923,0,0,1-2.277,5.455,10.261,10.261,0,0,1-12.21.025A6.143,6.143,0,0,1,87.351,65.7c0-.025-.025-.025-.025-.051a5.241,5.241,0,0,1,1.351-.3M85.725,71.6v-.025a51.622,51.622,0,0,1,5.054,3.453c-4.528-.1-6.88-1.3-6.98-3.6v-.049a2.589,2.589,0,0,1,1.927.225M40.673,32.93c.7-.27.841-.423.591-1.107l-.41-1.045c-.405-1.046-.293-1.491,1.289-2.11,1.045-.4,1.384-.152,1.684.626l.5,1.294c.31.8.5.733.845.6l1.767-.688a1.4,1.4,0,0,1,.878-.08.959.959,0,0,1,.626-.84c.6-.221,1.086-.165,1.5-.316.453-.165.828-.535,1.291-.7s.693-.1.963.656l.565,1.554.043-.016a3.347,3.347,0,0,1,2.371-3.863,3.016,3.016,0,0,1,1.2-.174,7.2,7.2,0,0,1,2.312-1.224,7.962,7.962,0,0,1,3.583-.6c1.321.223,1.91,1.131,2.485,2.708l1.419,3.9c.293.809.477.929.7.844.168-.06.316-.158.483-.221a1.141,1.141,0,0,1,1.459.784c.42,1.159-.6,2.027-1.554,2.371a2.5,2.5,0,0,1-2.843-.468,5.311,5.311,0,0,1-3.057,2.617,4.262,4.262,0,0,1-3.236,0,1.033,1.033,0,0,1-.643,1.112c-1.119.407-2.022.5-2.87.808-.791.288-1.5.784-2.252,1.054a.943.943,0,0,1-.91-.133,4.167,4.167,0,0,1-2.41,2.045,3.983,3.983,0,0,1-3.04.093,4.019,4.019,0,0,1-1.75-2.412l-.118-.309L42.533,35.54c-.183-.471-.309-.614-.781-.428l-.412.157c-.388.156-1.034-.235-1.256-.813a1.083,1.083,0,0,1,.59-1.526M26.394,46.837l-1.382-3.86c-.456-1.263-.665-1.4-.9-1.319a2.141,2.141,0,0,0-.286.172,1.028,1.028,0,0,1-.345.216c-.686.247-1.112-.233-1.337-.854a1.327,1.327,0,0,1,.823-1.906c.661-.239,1.274-.218,1.959-.469.649-.235.858-.555,1.4-.735s.68.216.873.751l1.845,5.174a3.6,3.6,0,0,0,.81,1.484,1.488,1.488,0,0,0,1.391.235,1.885,1.885,0,0,0,1.2-1.366,3.842,3.842,0,0,0-.28-2.307l-.5-1.433c-.4-1.124-.6-1.424-.9-1.321a1.714,1.714,0,0,0-.286.172,1.216,1.216,0,0,1-.342.218c-.686.242-1.114-.237-1.337-.858a1.3,1.3,0,0,1,.751-1.882c.684-.245,1.216-.2,1.9-.447.563-.2.866-.539,1.4-.731s.745-.008.905.447l2.219,6.228c.445,1.247.686,1.4.893,1.321s.363-.293.631-.391h.1a.747.747,0,0,1,.228-.147,1.68,1.68,0,0,1,.393-.076,2.152,2.152,0,0,0,.34-.035c.288-.107.218-.55-.168-1.587L35.952,34.98c-.37-.991-.573-1.412-.905-1.286-.206.075-.358.3-.623.4-.684.256-1.116-.221-1.351-.838-.3-.807-.184-1.577.684-1.9.535-.2,1.171-.2,1.729-.41.631-.228,1.154-.661,1.752-.884.5-.184.8.055,1.1.861l3.493,9.348c.476,1.279.721,1.374.886,1.312a.867.867,0,0,0,.28-.2,1.253,1.253,0,0,1,.351-.2c.684-.256,1.116.217,1.349.84.289.781.2,1.547-.688,1.877s-1.791.433-2.638.75c-.785.293-1.489.791-2.239,1.067a1.345,1.345,0,0,1-.458.072,1.335,1.335,0,0,1-.528.326c-.518.184-1.086.14-1.547.315s-.843.538-1.236.676a.728.728,0,0,1-1-.421l-.3-.826-.04.017a4.763,4.763,0,0,1-3.01,3.083,3.3,3.3,0,0,1-4.619-2.122m4.858,14.636c-.13-.416-.147-.879-.287-1.3s-.374-.788-.5-1.2c-.21-.676.371-1.177.961-1.367A1.634,1.634,0,0,1,33.209,58a2.612,2.612,0,0,0,1.172.649,3.737,3.737,0,0,0,1.648-.121c1.114-.35,1.332-.991,1.2-1.414-.2-.631-.772-.682-2.23-.482-2.28.318-4.411.591-5.254-2.127-.711-2.292.561-4.192,2.792-4.885a4.285,4.285,0,0,1,3.065.13c-.187-.745.244-1.068.916-1.28a1.228,1.228,0,0,1,.968.014c.635-.221,1.251-.235,1.887-.47s.849-.549,1.386-.751.686.193.884.726l1.913,5.144a3.655,3.655,0,0,0,.831,1.482,1.5,1.5,0,0,0,1.395.207,1.878,1.878,0,0,0,1.18-1.376,3.882,3.882,0,0,0-.315-2.305l-.53-1.429C45.707,48.6,45.5,48.3,45.207,48.4a2.213,2.213,0,0,0-.289.177,1.128,1.128,0,0,1-.341.223c-.68.252-1.115-.218-1.343-.841a1.312,1.312,0,0,1,.728-1.9c.682-.25,1.213-.215,1.9-.465.556-.2.856-.553,1.389-.751s.747-.019.915.436l2.307,6.2c.461,1.238.7,1.386.908,1.308s.36-.3.628-.4c.681-.258,1.116.216,1.342.835a1.3,1.3,0,0,1-.684,1.882c-.517.193-1.089.172-1.543.34s-.831.541-1.224.691a.592.592,0,0,1-.064.027.729.729,0,0,1-.937-.434l-.309-.831-.037.017a4.758,4.758,0,0,1-2.978,3.128,3.3,3.3,0,0,1-4.649-2.059L39.5,52.171c-.468-1.259-.682-1.391-.908-1.306a.873.873,0,0,0-.2.112,2.415,2.415,0,0,1,.184.426c.13.421-.059.986-.945,1.266-1.81.563-1.8-1.42-3.823-.8-.781.244-1.054.7-.889,1.226.145.458.48.656,1.611.516L35.5,53.5c2.25-.26,4.274-.43,5.092,2.182.733,2.375-1.061,4.459-3.271,5.15a5.506,5.506,0,0,1-3.83-.151l.03.09a.957.957,0,0,1-.753,1.273c-.651.2-1.263.21-1.514-.568m23.866,8.25a5.588,5.588,0,0,1-5.177-.268,1.159,1.159,0,0,1-.873,1.121c-.9.3-1.81.363-2.666.643-.8.263-1.189.618-1.939.868C44,72.237,43.5,72,43.15,70.916c-.317-.94-.045-1.312.251-1.409a.661.661,0,0,1,.275-.014.73.73,0,0,0,.251,0c.254-.08.177-.386-.209-1.556l-.855-2.62c-.383-1.173-1.037-1.542-1.863-1.291h-.04a2.154,2.154,0,0,0-1.189,2.965L40.433,69c.4,1.214.561,1.437.728,1.379a.528.528,0,0,0,.2-.158.687.687,0,0,1,.291-.165c.318-.1.714.118,1,1,.263.8.221,1.521-.365,1.719-.963.311-1.869.379-2.727.661-.8.258-1.524.733-2.236.963-.521.17-1.1-.363-1.351-1.159-.221-.635-.163-1.275.53-1.5a1.579,1.579,0,0,1,.4-.058,2.257,2.257,0,0,0,.338-.022c.3-.09.305-.341-.1-1.593l-.986-3c-.393-1.2-.585-1.436-.858-1.349-.21.072-.37.288-.643.376-.7.229-1.106-.263-1.314-.893-.263-.8-.14-1.544.344-1.707s1.075-.128,1.789-.36c.585-.19.893-.523,1.418-.691.586-.2.665.055.939.891l.175.53.04-.017a4.881,4.881,0,0,1,3-3.12,3.7,3.7,0,0,1,4.789,2.585L47,66.849c.414,1.259.606,1.424.856,1.344a.909.909,0,0,0,.288-.186,1.014,1.014,0,0,1,.165-.084,7.228,7.228,0,0,1-.891-1.572c-1.307-3.23-.3-6.488,3.053-7.843,3.155-1.274,5.688-.121,6.908,2.911.386.939.4,1.326-.826,1.828l-4.966,2c-.53.215-.558.323-.418.67.008.022.017.042.027.063a2.2,2.2,0,0,0,2.9,1.131,2.1,2.1,0,0,0,1.329-1.468c.374-.956.549-1.171,1.221-1.444a1.406,1.406,0,0,1,1.961.739c.628,1.553-.828,3.707-3.485,4.784M77.731,36.136c-2.154.792-1.1,3.833-.514,5.447.453,1.224.653,1.4.9,1.308A.842.842,0,0,0,78.4,42.7a1.242,1.242,0,0,1,.35-.2c.686-.245,1.119.23,1.347.851.288.784.172,1.554-.512,1.8-1.119.412-2.022.508-2.87.815-.8.291-1.5.788-2.252,1.061a1.075,1.075,0,0,1-1.291-.521,5.326,5.326,0,0,1-1.894,1.854c.521.048.878.448,1.116,1.049s.224,1.251-.453,1.5c-.186.081-.381.011-.563.081s-.237.235-.2.948l.405,6.569c.053.69.178,1.8-.588,2.1-.392.147-.86.1-1.19.223-.411.162-.723.515-1.116.663-.758.292-1.351-.326-1.675-.864l-3.39-5.517-.037.014.858,5.6a10.205,10.205,0,0,1,.18,1.679c-.014.458-.107.705-.54.873-.391.151-.861.1-1.189.223-.412.163-.723.51-1.11.663-.741.291-1.219.093-1.884-.828l-3.818-5.312c-.291-.4-.518-.653-.751-.719a4.748,4.748,0,0,1-.623.3c-.758.3-1.356-.207-1.661-.981-.263-.68-.145-1.3.451-1.526A2.7,2.7,0,0,1,53.894,55a1.018,1.018,0,0,0,.341-.033c.247-.1.257-.435-.193-1.584L51.513,46.88c-.456-1.174-.676-1.391-.926-1.294-.206.08-.356.3-.626.405-.676.265-1.119-.2-1.356-.819-.3-.782-.2-1.554.6-1.861.391-.156.9-.112,1.371-.3s.881-.575,1.382-.775c.556-.213.78.122,1.056.822l.133.351.042-.018a4.385,4.385,0,0,1,6.556-2.667,6.815,6.815,0,0,1,2.109,2.412,5.4,5.4,0,0,1,3.878-5.5,5.326,5.326,0,0,1,4.2.092c-.175-.678-.019-1.3.576-1.523s1.085-.165,1.5-.318c.458-.168.833-.533,1.289-.705s.693-.1.968.652l.568,1.547h.042a3.359,3.359,0,0,1,2.358-3.871,2.823,2.823,0,0,1,3.681,1.582,2.016,2.016,0,0,1-1.024,2.7,1.451,1.451,0,0,1-1.947-.815,1.915,1.915,0,0,1-.042-.893ZM80.855,74.7a3.7,3.7,0,0,1,1.092-2.2L82,72.78l.025-.025c.551,1.752,2.077,2.9,4.6,3.454a13.186,13.186,0,0,0-3.678,2.127l-.149.128A5.435,5.435,0,0,1,80.855,74.7m23.962,13.965c-2.2,1.226-5.355,1.851-9.359,1.851-4.228,0-7.506-.6-9.733-1.8s-3.3-2.8-3.3-4.979a5.447,5.447,0,0,1,.626-2.652c1.8,1.126,4.779,3.127,5.13,2.927a.155.155,0,0,0,.059-.187c.165-.517-2.465-2.627-3.394-3.518-.181-.172-.434-.388-.726-.639a6.575,6.575,0,0,1,1.458-1.086,16.219,16.219,0,0,1,7.182-1.8h.3c.551.426.975.751,1.151.9.826.475,1.576,1.026,1.652.326a.469.469,0,0,0,0-.109v-.006c.042-.351-.362-.729-.963-1.136,8.76.033,13.178,2.333,13.178,6.83a5.6,5.6,0,0,1-3.253,5.08m21.318-21.794v5.379a10.316,10.316,0,0,1-10.309,10.334h-.075a8.086,8.086,0,0,1-5.355-1.776,5.592,5.592,0,0,1-2.077-4.4,5.8,5.8,0,0,1,1.277-3.829,6.2,6.2,0,0,1,2.8-1.977,21.234,21.234,0,0,1,5.254-.825c4.2-.276,6.831-1.126,8.082-2.652.175-.225.3-.351.375-.451a.2.2,0,0,1,.025.2" transform="translate(0 0)" fill="#fff"/>
  </g>
</svg>
