<?xml version="1.0" encoding="utf-8"?>
<!-- Generator: Adobe Illustrator 22.1.0, SVG Export Plug-In . SVG Version: 6.00 Build 0)  -->
<svg version="1.1" id="レイヤー_1" xmlns="http://www.w3.org/2000/svg" xmlns:xlink="http://www.w3.org/1999/xlink" x="0px"
	 y="0px" viewBox="0 0 929.4 344.6" style="enable-background:new 0 0 929.4 344.6;" xml:space="preserve">
<style type="text/css">
	.st0{fill:none;}
	.st1{fill:#FFFFFF;}
</style>
<title>crop</title>
<path class="st0" d="M366,225.7c6,5.3,14.3,7.9,24.4,7.9s18.4-2.7,24.4-8.1s9.1-12.7,9.1-21.8c0-9.2-3-16.7-9-22.2s-14.1-8.4-24-8.4
	c-2.4,0-4.9,0.2-7.3,0.6l-0.3,0.1l0,0c-4.3,0.7-8.5,2.2-12.3,4.5l0,0c-0.4,0.2-0.8,0.5-1.2,0.8c-0.4,1.2-1,2.4-1.6,3.4
	c-2.1,8.8,3,15.5,9.7,19.4c4.4,2.6,10.9,4.9,9.1,10.5s-17.2,1.4-22.7,2c-1.8,0.1-3.7,0.5-5.3,1.3c0,0.1,0,0.1,0.1,0.2
	C360.5,219.6,362.9,223,366,225.7z"/>
<path class="st0" d="M512.4,221.6c-5,6.1-15.5,9.5-32.3,10.6c-9.3,0.6-16.4,1.7-21,3.3c-4.4,1.5-8.3,4.2-11.2,7.9
	c-3.4,4.1-5.1,9.2-5.1,15.3c-0.1,6.8,3,13.3,8.3,17.6c5.6,4.7,12.8,7.1,21.4,7.1c22.8,0.1,41.4-18.2,41.5-41c0-0.1,0-0.2,0-0.4
	v-21.5c0-0.2,0-0.5,0-0.7C513.6,220.2,513.1,220.8,512.4,221.6z"/>
<path class="st0" d="M344.7,238.8c0.4,9.1,9.8,13.9,27.9,14.4c-7.3-5.4-15.6-11.4-20.2-13.8c-2.4-1.2-5.1-1.5-7.7-0.8
	C344.7,238.6,344.7,238.7,344.7,238.8L344.7,238.8z"/>
<path class="st0" d="M640.8,235.9h76.5c2,0,2.8-0.7,2.8-2.5c0-9.2-3.2-18.1-9.6-26.4c-7.3-9.6-17.7-14.4-30.8-14.4
	c-10,0-18.6,2.8-25.7,8.3s-12.3,13.4-15.3,23.5l0,0c-1,3-1.6,6.1-1.7,9.2C636.9,234.3,636.9,235.9,640.8,235.9z"/>
<path class="st0" d="M340.5,267l0.7-0.6l0,0c4.4-3.6,9.4-6.5,14.8-8.5c-10.1-2.2-16.2-6.8-18.4-13.8l-0.1,0.1l-0.2-1.1
	c-2.5,2.4-4,5.6-4.4,9C332.6,257.6,336.4,262.8,340.5,267L340.5,267z"/>
<path class="st0" d="M388.2,259.8c2.8,1.8,4.8,3.5,4.6,5c-0.3,2.8-3.3,0.6-6.6-1.3c-0.7-0.6-2.4-1.9-4.6-3.6l-1.2,0
	c-12,0.7-21.7,3.1-28.7,7.2c-2.2,1.2-4.2,2.8-6,4.5c1.3,1.1,2.4,2,3.1,2.8c3.9,3.8,15.6,13.1,13.3,14.4c-1.4,0.8-13.4-7.2-20.5-11.7
	c-1.7,3.3-2.5,6.9-2.5,10.6c0,8.7,4.3,15.2,13.2,19.9s22.1,7.2,38.9,7.2c16,0,28.5-2.5,37.4-7.4s13-11.5,13-20.4
	C441.6,269,423.7,259.8,388.2,259.8z"/>
<path class="st1" d="M404.9,64.2c-0.3,0-0.7,0-0.9,0c-0.3,0.2-0.6,0.4-1,0.6c-1,0.5-1.9,1.1-2.6,2c-0.8,0.9-2.3,1.4-1.9,2.9
	c-1.3,3.1,0.2,5.9,2.2,8.2c0.3,0.4,0.6,0.7,1,1c1.7,1.4,3.5,3,5.7,2.8c0.5,0.2,0.9,0.4,1.2,0.8c0.8,0.8,0.5-1.1,1.4-0.8
	c2.8,2.3,1.6-1.8,3.3-2.6c0.4,0,0.7,0.6,1,0.8c1.2-0.2-0.6-0.8,0-1.6c0.5-0.7,1,0.4,1.4-0.2c-0.2-0.3-0.2-0.7-0.6-1
	c-0.1-0.4,0.1-0.8,0.4-1c0.5-0.2,0.7-0.7,0.6-1.1c0,0,0,0,0-0.1c-0.1-0.8-0.2-1.5-0.1-2.3c0.1-1-1.1-1.8-1.1-2.6
	c-1.4-2.9-4-4.9-7.1-5.6C406.9,64.1,405.9,64,404.9,64.2z"/>
<path class="st1" d="M353.1,2.8c-1.9,0-2.9,1.3-4.6,2.2c-1.7,0.3-3.4,2.1-4.4,3.6c-0.8,0.4-1.1,2.1-1.8,2.8c-0.1,1-0.9,2.1,0.5,3.7
	c1.2,0.2,2.5-0.1,3.5-0.8c0.6,0,0.5-1.4,1.1-0.7c0.7-0.5,1.5-1.7,2.6-1.9c1.9-1.6,3.6-3.5,4.9-5.7c0.7,1.7,1.1-0.5,1.8-0.1
	c0.6-2.4,1.9-4.5,3.9-6c0.2,0.1,0.5,0.1,0.8,0h-2.5C357,1.1,355.1,2,353.1,2.8z"/>
<path class="st1" d="M913.6,159.8c-0.2,0-1.2,0-6.4,0.5c-5.5,0.8-11,1.2-16.5,1.1h-8.4c-5-0.3-6.2-0.7-6.5-0.8l-0.2-0.1h-0.2
	c-5.6-0.5-6.3-0.6-6.4-0.6l-0.2,0.9v-1h-1l0,0c-3.7,0.4-4.3,2.8-4.3,4.3s0.7,4.1,5.5,4.1c2.1-0.1,4.2-0.3,6.3-0.6
	c2.1-0.3,4.2-0.5,6.3-0.5c8.1,0,8.1,2.9,8.1,3.9c-0.1,1-0.4,2-0.8,3l-35.8,87.8c-0.2,0.6-0.5,1.3-0.8,1.9c-0.3-0.6-0.6-1.2-0.8-1.9
	L820,181.2l-2.2-6.9c-0.5-1.3-0.7-2.6-0.8-3.9c0-2.1,2.7-3.2,7.9-3.2h12.7c4.9,0,5.9-1.9,5.9-3.5c0-1.8-1.1-3.9-6.6-3.9
	c-1.8,0-4.8,0.2-9,0.6c-6.1,0.6-11,0.9-14.3,0.9c-6.9,0-11.7-0.3-14.2-0.9h-0.1c-4.9-0.5-5.8-0.6-5.9-0.6l-0.2,0.7v-0.8h-1l0,0
	c-3.8,0.3-4.4,2.5-4.4,3.8c0,1.6,1,3.5,5.5,3.5h4.7c4,0,6.9,1.4,9,4.3c0.6,0.8,1.9,3.2,4.8,10.7l34.2,86.5c0.8,1.8,1.3,3.7,1.5,5.6
	c0,2.1-1.2,5.5-3.7,10.2c-7.7,15-18.4,22.6-31.9,22.6c-5.1,0-10.2-1.4-14.5-4.1c-4.2-2.6-6.3-5.5-6.3-8.5c0-0.3,0-1,0.2-1.1
	c0.2,0.1,0.5,0.1,0.8,0.2c0.9,0.4,2,0.7,3,0.7c7,0,8.5-4.3,8.5-7.9c0-2.3-0.9-4.5-2.7-6.1c-1.6-1.6-3.8-2.5-6.1-2.5
	c-3.2,0-6.2,1.5-8.2,3.9c-2.3,2.4-3.5,5.6-3.5,8.9c0,6.7,2.8,12.3,8.4,16.7s12.4,6.5,20.6,6.5c12.6,0,22.7-4.8,30.1-14.2
	c5.8-7.7,10.7-16.2,14.4-25.2l37.3-89.9l4.2-9.8c0.8-2.2,2-4.2,3.5-6c0.9-0.9,2.6-1.4,5-1.4h6c5.2,0,6.3-2.1,6.3-3.9
	C918.6,162,917.9,159.8,913.6,159.8z"/>
<g>
	<path class="st1" d="M233.4,98.4c0.4-0.2,0.8-0.5,1.1-0.8c0.4-0.3,0.9-0.6,1.4-0.8c-0.1-0.3-0.3-0.6-0.4-0.9
		c-7.1-19.6,22.2-18.8,18.2-29.7c-1.1-3.2-4.6-3.6-7.3-2.6c-1.4,0.5-2.6,1.2-2,2.9c0.8,2.2,1.3,4.3,0.6,6.6c-0.6,2.2-2.3,4-4.4,4.9
		c-3.1,1.1-6.6,0-7.8-3.3c-0.3-1.2-0.4-2.4-0.2-3.6l-0.7,0.2c-8.6,3.1-4.5,15.3-2.2,21.8C231.6,98,232.4,98.7,233.4,98.4z"/>
	<path class="st1" d="M198.7,106.9c1.5,3.8,2.9,4.8,5,4c2.1-0.8,2.2-2.7,1.1-5.7l-1.1-2.8c-0.1-0.2-0.2-0.4-0.2-0.6
		c-0.8-2.5,0.6-5.1,3-5.8c3.1-1.2,6.3,0.6,8.6,6.5c0.2,0.6,0.4,1.3,0.6,1.9l0.5-0.1c0.5,0,0.9,0,1.4-0.1c1-0.3,1.2-1.3-0.6-6.3
		l-4.3-11.9c-1.9-5.1-2.5-5.6-3.6-5.3c-0.8,0.3-1.5,1.2-2.5,1.6c-0.9,0.3-1.9,0.3-2.8-0.1c-0.9,1.3-2.2,2.2-3.7,2.6l-6.7,2.6v0
		c-1.6,0.6-1.3,1.7-0.3,4.5L198.7,106.9z"/>
	<path class="st1" d="M223.2,199c-0.9-2.2-4-4.3-8.2-2.6c-4.2,1.7-6.3,6.3-5.4,8.4v0c0.5,1.1,1.5,0.7,3.9-0.2l8.2-3.4
		C223.6,200.5,223.5,199.9,223.2,199z"/>
	<path class="st1" d="M248.5,89.1c1.1,2.9,3.7,3,6.1,2.2c4.9-1.8,6.2-5.6,4.5-10.4l-0.7-1.8C257,82.4,246.9,84.7,248.5,89.1z"/>
	<path class="st1" d="M273.5,121.3l8.4-2.9c1.9-0.6,1.9-1.2,1.6-2.1c-0.8-2.2-3.8-4.6-8-3.1s-6.6,5.9-5.9,8.1
		C270,122.4,271.1,122.1,273.5,121.3z"/>
	<path class="st1" d="M241.8,150.1c4-1.6,6.6-6.2,3.4-14.4c-3.1-8-8.2-9.8-12.3-8.3c-4,1.6-5.3,6.9-2.5,14
		C233.5,149.2,238.2,151.5,241.8,150.1z"/>
	<path class="st1" d="M275.3,153.4c2.4-0.9,5.4-1.1,8.2-2.2c0.7-0.3,1.4-0.6,2-0.9c-10.3,2.5-19.1-1.4-24.4-9.9
		c0.7,8.3-2.2,16.3-11.3,19.8c-4.4,1.7-8.1,0.2-12.4-1l1,2.6c1.8,4.7,2.6,5.6,3.7,5.2c0.4-0.2,0.8-0.5,1.1-0.8
		c0.4-0.3,0.9-0.6,1.4-0.8c2.7-1,4.4,0.8,5.4,3.3c1.2,3.1,0.8,6.2-2.6,7.5c-0.9,0.3-1.7,0.6-2.6,0.9c0,0.2,0,0.4,0.1,0.6
		c0.4,1,0.9,1.9,1.5,2.7l10,15.9h0.2l-4.3-25.9c-1-6.3-0.4-8.1,5.8-10.5c7.5-2.9,8.5-2,12.6,4.5l13.4,21.3l0.2-0.1l-2.8-19.6
		c0-0.8-0.2-1.6-0.4-2.3c-0.5-1.2-1.5-0.9-2.5-0.6c-2.6,1-4.9-0.4-5.9-3C271.5,157.1,272.1,154.6,275.3,153.4z"/>
	<path class="st1" d="M300.7,112.4c-1.9-5.1-2.5-5.6-3.6-5.2c-0.8,0.3-1.4,1.2-2.5,1.6h-0.1c2,2.4,3.6,5.3,4.6,8.3
		c1.3,3.8,1.3,5.4-3.7,7.1l-20.2,6.9c-2.2,0.7-2.3,1.2-1.8,2.6c0,0.1,0.1,0.2,0.1,0.3c1.7,4.6,6.8,6.9,11.3,5.1
		c2.9-1,4.1-2.2,5.6-5.6c1.7-3.7,2.5-4.6,5.2-5.5c3.1-1.1,6.2-0.1,7.4,3c0.5-0.1,1-0.2,1.4-0.2c0.5,0,0.9,0,1.3-0.1
		c1-0.4,1.2-1.4-0.6-6.3L300.7,112.4z"/>
	<path class="st1" d="M804.5,181.2c-5.8-5.1-13.4-7.7-22.5-7.7c-14.3,0-25.6,6.3-33.8,18.8v-10.8c0-3.8-2-5.8-5.7-5.8h-1.1h-0.2
		c-0.3,0.1-0.6,0.1-0.9,0.1h-0.1c-3.1,0.3-5.5,0.5-7.1,0.5h-3.4c-1.8,0-3.5-0.1-5.1-0.2c-3.5-0.3-5.9-0.4-7.2-0.4
		c-4.2,0-4.8,2.4-4.8,3.9c0,1.5,0.7,3.9,5.5,3.9l6.6-0.7h7.3c2.5,0,4.2,0.3,5.3,1s2.5,2.9,2.9,12.5v48.8c0,17.1-0.6,27.5-1.7,31
		c-1,3.1-4.2,4.6-9.5,4.6h-8.3c1.4-2.3,2.6-4.7,3.6-7.2c1.7-4.3,2.5-7.7,2.5-10.4s-1.3-4.1-3.7-4.1c-1.5,0-3.4,0.8-4.3,4.5
		c-0.5,1.8-0.9,3.7-1.1,5.6c-1.3,4.4-3.5,8.6-6.5,12.1c-7.8,9.6-18.7,14.4-32.4,14.4c-12.7,0-23.2-4.5-31-13.3s-11.9-20.7-11.9-35.1
		c0-3,0.4-3.7,0.5-3.8c0.1-0.1,0.5-0.5,3.2-0.5h78.9c2.4,0.1,4.8-0.2,7-1c1.8-0.8,2.7-2.9,2.7-6.5c0-13.8-4.7-25.7-13.8-35.3
		c-8.8-9.4-21.2-14.7-34.1-14.4c-15.3,0-28.1,5.6-37.8,16.7s-14.6,25.5-14.6,43c0,13.8,3.2,25.6,9.4,35.1h-2c-5.3,0-8.5-1.6-9.5-4.8
		c-1.2-3.5-1.7-13.9-1.7-30.9V141.4c0-3.5-0.3-4.6-0.5-5.1c-0.5-1.2-1.8-2.6-5-2.6h-25.3c-4.2,0-4.8,2.4-4.8,3.8
		c0,1.7,1,3.8,5.5,3.8c0.2,0,0.7,0,6.8-0.5c2.6-0.2,5.1-0.4,7.2-0.4c3.9,0,6.1,1.1,6.8,3.3c0.9,2.5,1.3,10.6,1.3,23.9V245
		c0,17.1-0.6,27.6-1.7,31c-1,3.1-4.2,4.7-9.5,4.7h-2.3c-0.3,0-0.6-0.1-0.9,0h-5.4h-7.7h-4.7c-5.3,0-8.5-1.6-9.5-4.8
		c-1.2-3.5-1.7-13.9-1.7-30.9V141.4c0-3.5-0.3-4.6-0.5-5.1c-0.5-1.2-1.8-2.6-4.9-2.6h-25.3c-4.2,0-4.8,2.4-4.8,3.8
		c0,1.7,1,3.8,5.5,3.8c0.2,0,0.7,0,6.8-0.5c2.6-0.2,5.1-0.4,7.2-0.4c3.8,0,6.1,1.1,6.8,3.3c0.8,2.5,1.3,10.6,1.3,23.9V245
		c0,17.1-0.6,27.6-1.7,31c-1,3.1-4.2,4.7-9.5,4.7h-5.3c2.1-4.2,3.3-9.7,3.5-16.6V262c0-4.5-2-5.5-3.7-5.5c-0.9,0-1.8,0.3-2.4,1
		c-1.1,1.2-1.6,3.3-1.5,6.4v4c0,10.3-3.7,15.3-11.2,15.3c-6.8,0-10.4-5.6-10.8-17v-55.2c0-13.1-3.8-22.9-11.3-29.2
		c-6.8-5.6-16.2-8.4-28-8.4c-11.6,0-21.4,2.8-29.1,8.2c-7.8,5.4-11.9,12.5-11.9,20.8c0,3.7,1.4,7.3,4,9.9c2.4,2.7,5.9,4.2,9.5,4.2
		c2.9,0,5.8-1,7.9-3c2.1-1.8,3.3-4.5,3.3-7.3c0-5.3-2.7-8.1-7.8-8.1c-3.4,0-5.8,1.5-7,4.4c-0.2,0.6-0.4,1-0.4,1.2
		c-0.2,0.2-0.3,0.3-0.5,0.4c-0.3,0-1-0.2-1-2.5c0-6.2,3-11.2,9.3-15.3c6.3-4.1,14.4-6.2,24.2-6.2c9.3,0,16.8,2.2,22.5,6.5
		c5.4,3.9,8.5,10.3,8.3,17c0,6.9-2.5,11.9-7.6,15.2c-5.1,3.3-13.8,5.4-25.6,6.1c-6.4,0.3-12.8,1.1-19.1,2.2
		c-7.6,1.4-14.4,5.3-19.5,11c-4.9,5.6-7.5,12.8-7.4,20.2c0,1,0,1.9,0.1,2.9l-0.1-0.1v0.1c-1.7-1-3.6-1.9-5.4-2.6
		c-8.5-3.4-22-5.3-40-5.6H378c-8.7-6.6-22.8-13.7-23.8-25.3c0.6,0,1-0.1,1.5-0.1h0.9c8.4,8.3,19.7,12.5,33.4,12.5
		c12.4,0,22.5-3.4,30.2-10c7.6-6.6,11.6-15.6,11.6-26.5c0.1-5.9-1.3-11.8-3.9-17.1l-4.5-8.9c-1.1-2.1-1.6-4.3-1.7-6.7
		c0-4.2,1.3-7.4,4-9.9c2.7-2.5,6.2-3.7,10.8-3.7c2.5-0.1,5,0.6,7.2,1.9c1.9,1.1,2.8,2.4,2.8,3.8c0,0.7-0.2,0.8-0.5,0.8l-0.4,0
		l-0.5-0.1c-0.7-0.2-1.5-0.4-2.2-0.5c-3,0-6.6,1.2-6.6,7.2c0,5,2.7,7.7,7.8,7.7c2.9,0,5.7-1.3,7.5-3.6c2-2.3,3-5.3,3-8.3
		c0.1-4.4-1.8-8.6-5.2-11.4c-3.7-3.1-8.3-4.6-13.1-4.5c-6.1,0-11.3,1.8-15.4,5.4c-4,3.3-6.3,8.2-6.3,13.4c0,1.4,0.2,2.7,0.5,4.1
		c-6.9-3.8-14.6-6-22.4-6.6c-0.7,0-1.4-0.1-2.2-0.1c-2.4,0-4.9,0.2-7.3,0.5h-0.2l-1.6,0.2L381,167c-15.3-2.3-6.6-19.2-4.2-24.7
		c2.4-5.5,15.1-4.2,18.4-4c5.9,0.4,16.7-2.3,22.5-2.1c7.2-1.2,20.8-2.1,21.8-3.5c0.9-1.4-17.3,0.4-22.5,0.5
		c-5.1,0.1-14,1.6-19.9,1.8c-2.2,0.1-7.6,0.9-9.8-2.4c-1.5-2.2-1.9-4.9-1.3-7.4c0.7-2.8,2.9-6.6-2.3-9.7s-12.8-16.4-14.4-26.2
		c-1.6-9.8-6.7-25.4,3.4-33.8c4.3-3.6,16.1-11.5,12.3-12.3s-20.6,8.3-29.3,5c-7.5-2.9-21.5-14.5-19.1-27.9c2.1-11.9-1-12.9-2.5-14.6
		c-10.5-8.1-20.5,5.9-27.7-3.4c-0.6-0.7-1-1.5-1.3-2.4H123.2c-3,6.6-5.3,10.1-14.1,10.6C101.4,11,97,14.4,93,21.2
		c-2.4,4-2.3,5.7-2.2,10.8s-2.3,10-9.2,12c-6.6,2-24.1-7.3-25.5-4.4C54.8,42.4,58.4,44,61,47c6.7,5.8,9.1,6.1,9.6,12
		c0.5,5.9-1.6,12-6.4,13.5c-4.8,1.5-12.1,0.4-19-1.5c3.3,7,6.9,12.2,1.9,13.6c-17.6,5.1-37.3,1.9-37.3,1.9c2,1.7,28.1,2.9,33.3,11.1
		c4.1,6.4,7,12.7-0.8,17.3c-7.8,4.7-16,4.9-15.5,7c0.5,2.1,15.3,2.5,21.8,1.2c7.4,1.9,5.7,9.3,3.2,13.5c-2.4,4.2-8.1,5.9-14.1,7.1
		c-6,1.1-12.2,2-10.9,4.9c1.3,2.9,16.9,0.4,23.2,1.2s10.4,17.4,8.3,25.5c-2.1,8-16,7-22.9,13.2c-0.9,3.7,3.4,1.4,6,2.6
		c7.6,0.4,8.7,3,9.3,7.3c0.6,4.3-6.3,7.7-3.2,11.9c3,4,8.8-7.4,16.9-2.3c9.5,7.1,13.6,17.3,13.2,22.5c-0.3,5.2-7.5,12.3-10.7,16.2
		s-7.4,6.7-3.7,10.9c8.6,0.7,12.5-10.2,19.4-13.4c12.3-4.6,10.6,3.3,16.9,12.3c5.1,12.7-1.2,15,3.5,20.6c1.6,5.3-1.1,9.3,0.7,11.6
		s2.5,2.8,5.5,2.8c1.4,0.1,3.4,1.2,2.3,3.6c-1.2,2.4-4.8,14.7-8.5,21.9c3.7-6,7.6-11.6,9.7-18.1c0.5-3,4.6-5.5,6-1.4
		c0.5,1.8,0.1,3.8-2.3,8.6c-0.9,1.4-2.1,4-1.2,4.9c1,0.9,11.1-13,19.2-16.9c5.4-1.6,12.4,0,13,6.4c0.5,5,1.3,6.5-2.7,17.5
		c-0.9,3.6-2.9,8.4-4.3,13.6c4.6-4.9,8.5-16.2,12.9-19.4c3.7-2.6,7.2-4,12.5-4.9c9.5-2.1,11,6.2,15.4,10.4c1.5,1.6,3.8,3.3,6.3,1.6
		c16.3-11.3,26.3-11.5,34-12c7.7-0.5,22.3,9.4,32.1,18.5c9.1,10.3,4.6,8.3,8.9,12.7c3.2,1.2,2.3-3.7,1-6.6c-1.3-2.9-4.4-12.2-4.7-16
		c-1.5-16.7,14.5-23.2,20.6-23.1c6.1,0,11.7,4.9,17.7,9.5c6.7,4.9,14.9,18,17.5,17.1c2.5-0.9-12.5-16.2-15.7-25.2
		c-5.1-13.4,14.6-23.3,19.4-24.1c4-0.6,10.7,1.2,16.4,3.9l-0.5,0.9c-2.3,4.1-3.4,8.7-3.4,13.3c0,10.9,5.3,19.3,15.9,25.2
		c10.3,5.8,25,8.7,43.6,8.7c18.9,0,33.6-3,43.6-8.8c10.2-6,15.4-14.8,15.4-26.1c0-0.7,0-1.4-0.1-2.1l0.1,0v-0.1
		c6,3.6,13.4,5.5,22,5.5c13.8,0,25.5-4.7,34.8-13.9c2.8-2.8,5.4-5.9,7.6-9.2v2.5c0.8,13.6,7,20.5,18.5,20.5
		c3.9,0.1,7.8-1.1,10.9-3.4h7.2l9.4-0.2h17.4l9.7,0.4h3.5c0.7,0.1,1.4,0.1,2.1,0.1l2.7-0.1c0.8,0,1.6,0,2.3-0.1l4.8-0.2l8.8-0.1
		h17.4l9,0.2l4.4,0.3c9.3,10.3,21.8,15.5,37,15.5c10.5,0,19.9-2.6,27.8-7.6c3.4-2.2,6.5-4.8,9.2-7.9c0.6,0,1.2,0,1.8,0l8.5-0.1
		l9.1-0.4h17.1l9.2,0.4l7.9,0.4h0.7c1.9,0,5.2,0,5.2-3.1c0-1.6-1-3.5-5.9-3.5h-10.4c-5.2,0-8.2-1.5-9.3-4.6
		c-1.2-3.4-1.7-13.8-1.7-31v-18.9c0-14.5,2.1-25.4,6.3-32.3c5.6-9.1,14.6-13.7,27-13.7c7.1,0,13,1.9,17.4,5.6
		c4.3,3.5,6.7,8.8,6.5,14.3c0,4.4-0.7,6.9-1.9,7c-0.7-0.3-1.4-0.6-1.9-1.1c-1.2-1-2.7-1.5-4.2-1.5c-5.1,0-7.8,2.6-7.8,7.7
		c0,3.8,1.6,8.3,9,8.3c4.3,0,8.3-2.1,10.7-5.6c2.8-4,4.3-8.7,4.1-13.6C813.5,193.6,810.3,186.2,804.5,181.2z M638.7,224.4
		c3-10.1,8.2-18,15.3-23.5s15.8-8.3,25.7-8.3c13.1,0,23.5,4.9,30.8,14.4c6.4,8.3,9.6,17.2,9.6,26.4c0,1.8-0.8,2.5-2.8,2.5h-76.5
		c-3.9,0-3.9-1.6-3.9-2.3C637.1,230.5,637.6,227.3,638.7,224.4z M364.2,214.4L364.2,214.4c5.5-0.7,20.9,3.5,22.7-2.1
		c1.8-5.6-4.7-8-9.1-10.5c-6.7-3.9-11.8-10.6-9.7-19.4c0.7-1.1,1.2-2.2,1.6-3.4c0.4-0.3,0.8-0.5,1.2-0.8c3.8-2.3,7.9-3.8,12.3-4.5
		l0.3,0c2.4-0.4,4.8-0.6,7.3-0.5c10,0,18.1,2.8,24,8.3c5.9,5.5,9,13,9,22.2c0,9.1-3,16.4-9.1,21.8s-14.3,8.1-24.4,8.1
		c-10.1,0-18.4-2.7-24.4-8c-3.1-2.6-5.5-6-7-9.8c0-0.1-0.1-0.1-0.1-0.2C360.6,215,362.4,214.5,364.2,214.4z M344.7,238.5
		c2.6-0.7,5.3-0.4,7.7,0.9l0-0.1c4.6,2.4,12.9,8.4,20.2,13.8c-18.1-0.4-27.5-5.2-27.9-14.4C344.7,238.7,344.7,238.6,344.7,238.5z
		 M172.1,85c2.8-1.1,3.4-1.7,2.4-4.4l-1.6-4.2c-1.6-4.2-1.2-6,5.2-8.4c4.2-1.6,5.5-0.6,6.7,2.5l2,5.2c1.2,3.2,2,2.9,3.4,2.4l7.1-2.8
		c1.1-0.5,2.3-0.6,3.5-0.3c0.1-1.5,1.1-2.8,2.5-3.4c2.4-0.9,4.3-0.7,6-1.3c1.8-0.7,3.3-2.1,5.2-2.8c1.9-0.7,2.8-0.4,3.9,2.6l2.3,6.2
		l0.2-0.1c-1.1-7.3,2.5-12.9,9.5-15.4c1.5-0.6,3.2-0.8,4.8-0.7c1.8-1.6,4.7-3.2,9.2-4.9c4.1-1.5,9.9-3.1,14.3-2.4
		c5.3,0.9,7.6,4.5,9.9,10.8l5.7,15.6c1.2,3.2,1.9,3.7,2.8,3.4c0.7-0.2,1.3-0.6,1.9-0.9c2.7-1,5,0.7,5.8,3.1c1.7,4.6-2.4,8.1-6.2,9.5
		s-8.5,1.5-11.4-1.9c-2.5,5-6.9,8.7-12.2,10.5c-4.4,1.6-9.1,1.8-12.9,0c0.1,2-0.7,3.8-2.6,4.4c-4.5,1.6-8.1,2-11.5,3.2
		c-3.2,1.2-6,3.1-9,4.2c-1.2,0.5-2.6,0.3-3.6-0.5c-1.6,3.6-5,6.4-9.6,8.2c-3.8,1.5-8.4,2.1-12.1,0.4c-3.8-1.7-5.5-5.9-7-9.6
		l-0.5-1.2l-6.4-16.5c-0.7-1.9-1.2-2.5-3.1-1.7l-1.7,0.6c-1.5,0.6-4.1-0.9-5-3.2C168.7,88.5,169.4,86,172.1,85z M115,140.6
		l-5.5-15.4c-1.8-5-2.7-5.6-3.6-5.3c-0.4,0.2-0.8,0.4-1.1,0.7c-0.4,0.4-0.9,0.7-1.4,0.9c-2.7,1-4.4-0.9-5.3-3.4
		c-1.1-3.2-0.6-6.2,3.3-7.6c2.6-1,5.1-0.9,7.8-1.9c2.6-0.9,3.4-2.2,5.6-2.9c2.2-0.7,2.7,0.9,3.5,3l7.4,20.7c0.6,1.7,1.7,4.6,3.2,5.9
		c1.6,1.2,3.7,1.6,5.6,0.9c2.4-0.9,4.2-2.9,4.8-5.5c0.8-3.2,0-6.2-1.1-9.2l-2-5.7c-1.6-4.5-2.4-5.7-3.6-5.3
		c-0.4,0.2-0.8,0.4-1.1,0.7c-0.4,0.4-0.9,0.7-1.4,0.9c-2.7,1-4.4-1-5.3-3.4c-1.2-3.2-0.7-6.2,3-7.5c2.7-1,4.9-0.8,7.6-1.8
		c2.2-0.8,3.5-2.2,5.6-2.9c2.1-0.8,3,0,3.6,1.8l8.9,24.9c1.8,5,2.7,5.6,3.6,5.3c0.8-0.3,1.4-1.2,2.5-1.6c0.2,0,0.3,0,0.4,0
		c0.3-0.2,0.6-0.4,0.9-0.6c0.5-0.2,1-0.3,1.6-0.3c0.5,0,0.9-0.1,1.4-0.1c1.2-0.4,0.9-2.2-0.7-6.3l-9.8-26.2c-1.5-4-2.3-5.6-3.6-5.1
		c-0.8,0.3-1.4,1.2-2.5,1.6c-2.7,1-4.5-0.9-5.4-3.4c-1.2-3.2-0.7-6.3,2.7-7.6c2.1-0.8,4.7-0.8,6.9-1.6c2.5-0.9,4.6-2.6,7-3.5
		c2-0.7,3.2,0.2,4.4,3.4l14,37.4c1.9,5.1,2.9,5.5,3.5,5.2c0.4-0.2,0.8-0.5,1.1-0.8c0.4-0.3,0.9-0.6,1.4-0.8c2.7-1,4.5,0.9,5.4,3.4
		c1.2,3.1,0.8,6.2-2.8,7.5s-7.2,1.7-10.5,3c-3.1,1.2-6,3.2-9,4.3c-0.6,0.2-1.2,0.3-1.8,0.3c-0.6,0.6-1.3,1-2.1,1.3
		c-2.1,0.7-4.3,0.6-6.2,1.3c-1.8,0.7-3.4,2.1-4.9,2.7c-0.1,0.1-0.2,0.1-0.3,0.1c-1.5,0.5-3.2-0.3-3.7-1.8l-1.2-3.3l-0.2,0.1
		c-1.4,5.6-6.5,10.3-12,12.3C124.9,152.1,118,149,115,140.6z M134.4,199.1c-0.5-1.7-0.6-3.5-1.1-5.2c-0.6-1.7-1.5-3.2-2-4.8
		c-0.8-2.7,1.5-4.7,3.8-5.5c3.1-1,4.7-0.4,7.1,1.6c1.5,1.1,2.9,2.3,4.7,2.6c2.2,0.3,4.5,0.2,6.6-0.5c4.5-1.4,5.3-4,4.8-5.6
		c-0.8-2.5-3.1-2.7-8.9-1.9c-9.1,1.3-17.6,2.4-21-8.5c-2.8-9.2,2.2-16.8,11.2-19.5c3.8-1.2,8.6-1.3,12.2,0.5c-0.8-3,1-4.3,3.7-5.1
		c1.2-0.5,2.6-0.5,3.9,0.1c2.5-0.9,5-0.9,7.5-1.9s3.4-2.2,5.5-3c2.2-0.8,2.7,0.8,3.5,2.9l7.6,20.6c0.6,1.7,1.7,4.6,3.3,5.9
		c1.6,1.2,3.7,1.5,5.6,0.8c2.4-0.9,4.2-3,4.7-5.5c0.7-3.3-0.1-6.2-1.3-9.2l-2.1-5.7c-1.6-4.5-2.5-5.7-3.6-5.2
		c-0.4,0.2-0.8,0.4-1.2,0.7c-0.4,0.4-0.9,0.7-1.4,0.9c-2.7,1-4.5-0.9-5.4-3.4c-1.2-3.2-0.7-6.2,2.9-7.6c2.7-1,4.8-0.9,7.6-1.9
		c2.2-0.8,3.4-2.2,5.6-3c2.1-0.8,3-0.1,3.7,1.7l9.2,24.8c1.8,4.9,2.8,5.5,3.6,5.2s1.4-1.2,2.5-1.6c2.7-1,4.5,0.9,5.4,3.3
		c1.2,3.1,0.7,6.2-2.7,7.5c-2.1,0.8-4.4,0.7-6.2,1.4c-1.8,0.7-3.3,2.2-4.9,2.8c-0.1,0-0.2,0.1-0.3,0.1c-1.5,0.6-3.2-0.2-3.7-1.7
		l-1.2-3.3l-0.1,0.1c-1.4,5.7-6.4,10.4-11.9,12.5c-8.5,3.2-15.5,0.1-18.6-8.2l-5.7-15.3c-1.9-5-2.7-5.6-3.6-5.2
		c-0.3,0.1-0.5,0.3-0.8,0.5c0.3,0.5,0.5,1.1,0.7,1.7c0.5,1.7-0.2,3.9-3.8,5.1c-7.2,2.2-7.2-5.7-15.3-3.2c-3.1,1-4.2,2.8-3.5,4.9
		c0.6,1.8,1.9,2.6,6.4,2.1l3.8-0.5c9-1,17.1-1.7,20.3,8.7c2.9,9.5-4.2,17.8-13.1,20.6c-5,1.6-10.4,1.4-15.3-0.6l0.1,0.4
		c0.8,2.4-0.4,4.3-3,5.1C137.9,202.2,135.4,202.2,134.4,199.1z M229.8,232.1c-7.7,3.1-14.9,2.5-20.7-1.1c0,2.1-1.4,4-3.5,4.5
		c-3.6,1.2-7.2,1.5-10.6,2.6c-3.2,1-4.8,2.5-7.8,3.5c-1.9,0.6-3.8-0.3-5.2-4.7c-1.3-3.8-0.2-5.2,1-5.6c0.4-0.1,0.7-0.1,1.1-0.1
		c0.3,0.1,0.7,0.1,1,0c1-0.3,0.7-1.5-0.8-6.2l-3.4-10.5c-1.5-4.7-4.1-6.2-7.4-5.2h-0.2c-2.8,0.9-7.2,4.5-4.8,11.9l2.6,8
		c1.6,4.8,2.2,5.7,2.9,5.5c0.3-0.1,0.6-0.4,0.8-0.6c0.3-0.3,0.7-0.5,1.2-0.7c1.3-0.4,2.9,0.5,4,4c1,3.2,0.9,6.1-1.5,6.9
		c-3.9,1.2-7.5,1.5-10.9,2.6c-3.2,1-6.1,2.9-8.9,3.8c-2.1,0.7-4.4-1.5-5.4-4.6c-0.9-2.5-0.7-5.1,2.1-6c0.5-0.1,1.1-0.2,1.6-0.2
		c0.5,0,0.9,0,1.4-0.1c1.2-0.4,1.2-1.4-0.4-6.4l-3.9-12c-1.6-4.8-2.3-5.7-3.4-5.4c-0.8,0.3-1.5,1.1-2.6,1.5
		c-2.8,0.9-4.4-1.1-5.2-3.6c-1-3.2-0.6-6.2,1.4-6.8c1.9-0.7,4.3-0.5,7.2-1.4c2.3-0.8,3.6-2.1,5.7-2.8c2.3-0.8,2.7,0.2,3.8,3.6
		l0.7,2.1l0.2-0.1c2.1-5.7,6-10.5,12-12.5c7.4-2.4,16,0.6,19.1,10.3l4.6,14.1c1.6,5,2.4,5.7,3.4,5.4c0.4-0.2,0.8-0.4,1.2-0.7
		c0.2-0.1,0.4-0.2,0.7-0.3c-1.4-1.9-2.6-4-3.6-6.3c-5.2-12.9-1.2-25.9,12.2-31.4c12.6-5.1,22.7-0.5,27.6,11.6
		c1.5,3.8,1.6,5.3-3.3,7.3l-19.9,8c-2.1,0.9-2.2,1.3-1.7,2.7c0,0.1,0.1,0.2,0.1,0.2c2,4.5,7.1,6.5,11.6,4.5c2.8-1.1,4-2.5,5.3-5.9
		c1.5-3.8,2.2-4.7,4.9-5.8c3.2-1.3,6.4-0.4,7.8,3C246.2,219.2,240.4,227.8,229.8,232.1z M320.2,97.8c-8.6,3.2-4.4,15.3-2,21.8
		c1.8,4.9,2.6,5.6,3.6,5.2c0.4-0.2,0.8-0.4,1.1-0.8c0.4-0.3,0.9-0.6,1.4-0.8c2.7-1,4.5,0.9,5.4,3.4c1.2,3.1,0.7,6.2-2,7.2
		c-4.5,1.7-8.1,2-11.5,3.3c-3.2,1.2-6,3.2-9,4.2c-2.1,0.8-3.9-0.2-5.2-2.1c-1.9,3.1-4.5,5.6-7.6,7.4c2.1,0.2,3.5,1.8,4.5,4.2
		c1,2.4,0.9,5-1.8,6c-0.7,0.3-1.5,0-2.2,0.3c-0.7,0.3-1,0.9-0.8,3.8l1.6,26.2c0.2,2.8,0.7,7.2-2.4,8.4c-1.6,0.6-3.4,0.4-4.8,0.9
		c-1.6,0.7-2.9,2.1-4.5,2.7c-3,1.2-5.4-1.3-6.7-3.5l-13.5-22l-0.2,0.1l3.4,22.4c0.4,2.2,0.7,4.5,0.7,6.7c-0.1,1.8-0.4,2.8-2.2,3.5
		c-1.6,0.6-3.4,0.4-4.8,0.9c-1.6,0.6-2.9,2-4.4,2.6c-3,1.2-4.9,0.4-7.5-3.3l-15.3-21.2c-1.2-1.6-2.1-2.6-3-2.9
		c-0.8,0.5-1.6,0.8-2.5,1.2c-3,1.2-5.4-0.8-6.6-3.9c-1-2.7-0.6-5.2,1.8-6.1c0.5-0.2,1-0.3,1.6-0.3c0.5,0,0.9,0,1.4-0.1
		c1-0.4,1-1.7-0.8-6.3l-10.1-26c-1.8-4.7-2.7-5.6-3.7-5.2c-0.8,0.3-1.4,1.2-2.5,1.6c-2.7,1.1-4.5-0.8-5.4-3.3
		c-1.2-3.1-0.8-6.2,2.4-7.4c1.6-0.6,3.6-0.5,5.5-1.2c1.9-0.8,3.5-2.3,5.5-3.1c2.2-0.8,3.1,0.5,4.2,3.3l0.5,1.4l0.2-0.1
		c1.1-5.4,5-9.9,10.2-11.9c5.7-2.2,10.9-2.1,16,1.2c3.5,2.5,6.4,5.8,8.4,9.6c-0.3-9.8,4.8-18.4,15.5-22c6.5-2.2,12.2-2,16.8,0.4
		c-0.7-2.7-0.1-5.2,2.3-6.1s4.3-0.7,6-1.3c1.8-0.7,3.3-2.1,5.1-2.8s2.8-0.4,3.9,2.6l2.3,6.2h0.2c-1.2-7.3,2.5-12.9,9.4-15.5
		c5.8-2.1,12.5,0.3,14.7,6.3c1.6,4.2,0.3,9.1-4.1,10.8c-3.2,1.1-6.5,0-7.8-3.3c-0.3-1.2-0.4-2.4-0.2-3.6L320.2,97.8z M332.9,252
		c0.4-3.4,1.9-6.6,4.4-9l0.2,1.1l0.1-0.1c2.2,7,8.3,11.6,18.4,13.8c-5.3,2-10.3,4.9-14.7,8.5l-0.7,0.6
		C336.4,262.8,332.6,257.6,332.9,252z M428.7,307.6L428.7,307.6c-8.8,4.9-21.4,7.4-37.4,7.4c-16.9,0-30-2.4-38.9-7.2
		c-8.9-4.8-13.2-11.2-13.2-19.9c-0.1-3.7,0.8-7.3,2.5-10.6c7.2,4.5,19.1,12.5,20.5,11.7c2.2-1.3-9.4-10.6-13.3-14.4
		c-0.8-0.7-1.9-1.7-3.1-2.8c1.8-1.8,3.8-3.3,6-4.5c7-4.1,16.7-6.5,28.7-7.2l1.2,0c2.2,1.7,3.9,3,4.6,3.6c3.3,1.9,6.3,4.1,6.6,1.3
		c0.2-1.5-1.8-3.2-4.6-5c35.5,0,53.4,9.2,53.4,27.3C441.7,296,437.4,302.7,428.7,307.6z M513.9,220.5V242
		c0,22.8-18.4,41.3-41.2,41.3c-0.1,0-0.2,0-0.3,0c-8.6,0-15.8-2.4-21.4-7.1c-5.3-4.3-8.4-10.8-8.3-17.6c0-6.1,1.7-11.2,5.1-15.3
		c2.9-3.6,6.8-6.4,11.2-7.9c4.6-1.6,11.6-2.7,21-3.3c16.8-1.1,27.3-4.5,32.3-10.6c0.7-0.9,1.2-1.4,1.5-1.8
		C514,220,514,220.3,513.9,220.5z"/>
</g>
</svg>
