<svg id="レイヤー_1" data-name="レイヤー 1" xmlns="http://www.w3.org/2000/svg" viewBox="0 0 451.4 403.58"><defs><style>.cls-1{fill:#231916;}.cls-2{fill:#fff;}</style></defs><title>bg</title><path d="M415,125.81c0,.87,1.22,1.63,1.1,2.62a7.26,7.26,0,0,0,.06,2.28.91.91,0,0,1-.57,1.2,1,1,0,0,0-.39,1c.39.28.39.66.62,1-.47.66-1-.42-1.44.24-.62.81,1.21,1.4,0,1.59-.35-.23-.62-.74-1-.78-1.67.86-.46,4.9-3.26,2.61-.93-.24-.58,1.63-1.4.81a3.26,3.26,0,0,0-1.24-.81c-2.14.24-4-1.37-5.69-2.78a7.59,7.59,0,0,1-1-1c-2-2.31-3.46-5.11-2.16-8.2-.45-1.54,1.13-2,1.88-2.91a7.28,7.28,0,0,1,2.57-2,6.34,6.34,0,0,0,1-.61c.14,0,.52,0,.86,0a9.86,9.86,0,0,1,3,0A10.47,10.47,0,0,1,415,125.81Z"/><path class="cls-1" d="M376,269.82l-.2.16C375.76,269.93,375.65,269.79,376,269.82Z"/><path d="M265.11,18.9c-3.22,9.76-.93,16.76,9.51,23.76a17.57,17.57,0,0,0,15.63,1.39c5.85-2.58,12.43-14.88,17.26-14.93,3.85,0-8.21,20.11-1.07,29.25s17.15-4.72,27.69,3.39c1.5,1.71,4.68,2.68,2.54,14.59-2.39,13.33,11.63,25,19.1,27.88,8.67,3.37,25.53-5.69,29.29-5s-8,8.65-12.35,12.26c-10,8.41-5,24-3.39,33.8s9.19,23.17,14.39,26.26,3,7,2.31,9.72a9,9,0,0,0,1.26,7.42c2.21,3.37,7.62,2.54,9.82,2.44,5.85-.24,14.78-1.73,19.9-1.82s23.39-1.9,22.46-.49-14.58,2.31-21.76,3.47c-5.79-.23-16.6,2.52-22.52,2.08-3.22-.23-15.94-1.48-18.36,4s-11.08,22.39,4.19,24.7c6.95,3.7,11.77.47,11.77.47a45.08,45.08,0,0,1,4.63,1.16c6.42,1.8-6.37,2.6-9.49,2.32-6.93-.64-1.7,3.72-7.73.48-8.56-3.71-9.26,6.71-12,10.88-2.09,8.8,3,15.51,9.72,19.44,4.4,2.55,10.88,4.93,9.06,10.54s-17.24,1.38-22.69,2-7.44,1.31-9.52,7.8c-4.4,16.43,16.43,24.67,25.71,33,6,3.65,12.73,6.88,12.4,9.68s-3.34.63-6.61-1.29c-3.31-2.57-25.13-19.69-33.82-24.23s-19.12,4.77-19.52,12.66c-.52,10,12,18.73,15.94,22.51s15.56,13.06,13.31,14.37c-1.71,1-18.31-10.61-24.05-13.76-6.28-3.45-14.71-6.27-19.52-5.49s-24.49,10.68-19.4,24.11c3.24,9,18.29,24.28,15.74,25.23s-10.77-12.23-17.48-17.09c-6-4.63-11.61-9.5-17.7-9.53s-22.12,6.46-20.61,23.15c.35,3.85,3.39,13.15,4.71,16s2.25,7.75-1,6.59c-4.26-4.37.24-2.45-8.86-12.71-9.79-9.11-24.37-19-32.13-18.48s-17.69.76-34,12c-2.48,1.71-4.8-.06-6.32-1.62-4.4-4.16-5.95-12.5-15.44-10.41-5.33.92-8.8,2.25-12.53,4.89-4.48,3.18-8.31,14.55-12.94,19.41,1.4-5.24,3.39-9.95,4.32-13.61,4-11,3.23-12.5,2.7-17.51-.68-6.4-7.61-7.94-13-6.38-8.1,3.94-18.24,17.79-19.21,16.9s.23-3.47,1.16-4.86c2.43-4.73,2.76-6.81,2.31-8.56-1.39-4.17-5.55-1.63-6,1.38-2.08,6.48-6,12-9.72,18.06,3.7-7.18,7.38-19.47,8.53-21.88s-.91-3.47-2.28-3.59c-3,0-3.65-.48-5.52-2.77s.89-6.25-.73-11.58c-4.63-5.56,1.59-7.88-3.47-20.6-6.28-9-4.63-16.9-16.91-12.27-6.94,3.24-10.87,14.12-19.44,13.42-3.71-4.16.54-7,3.71-10.87s10.3-11,10.68-16.2S73.92,271,64.43,263.86c-8.1-5.09-13.94,6.32-16.9,2.32-3.09-4.19,3.85-7.7,3.25-11.93s-1.67-6.84-9.3-7.26c-2.55-1.16-6.91,1.13-6-2.57,6.95-6.25,20.86-5.15,22.92-13.2s-2.1-24.67-8.34-25.46-21.85,1.65-23.15-1.16,4.85-3.73,10.89-4.86,11.69-2.84,14.12-7.06,4.16-11.69-3.24-13.55C42.2,180.52,27.5,180,26.92,178s7.65-2.32,15.48-7,4.88-10.94.81-17.34c-5.2-8.19-31.31-9.43-33.33-11.08,0,0,19.65,3.18,37.28-1.93,5-1.43,1.4-6.58-1.95-13.6,6.95,1.85,14.16,3,19,1.46s6.89-7.72,6.36-13.59-2.89-6.2-9.62-12c-2.55-3-6.2-4.51-4.87-7.41S74.92,102,81.56,100c6.94-2,9.3-7,9.25-12.09S90.67,81.18,93,77.16C97,70.45,101.42,67,109,66.56c10.33-.57,11.77-5.18,15.71-14.07s.77-12.57,5-14.26c5.34-2.13,8.17,2.71,13.37,5.82,4.93,3,11,1.16,12.74-4.13s-3.19-16,1.87-16.82,6.66,4.73,15.18,5.88c8.84,1.2,13.65,2.89,19.08-7.71,3.66-7.15,4-12.63,9.27-11.62s1.05,11.56,11.92,19.43c5,3.85,10.56,3.75,15.13,3.47s7.83-.29,11.27-3.18c2.41-2,4.7-2.9,14.94-12,5.91-5.26,8.92-6.42,10.6-6.2C266.38,11.32,266.47,14.76,265.11,18.9Z"/><path class="cls-2" d="M360.59,47.32c-.22.09-.1-.3,0-.31C360.93,47,360.48,47.15,360.59,47.32Z"/><path class="cls-2" d="M360.54,48l.38.05C360.89,48.08,360.82,48.14,360.54,48Z"/><path d="M376.42,44c-4.23,1.87-8.19,6.49-11.88,8.4-2.13-.06-1.75,4.06-4,3.63a10.61,10.61,0,0,0-3.86,6c-.76-.46-1.14,1.74-1.84.06A23.58,23.58,0,0,1,350,67.8c-1,.16-1.85,1.38-2.56,1.87-.69-.75-.59.7-1.15.68a4.58,4.58,0,0,1-3.46.77c-1.37-1.59-.53-2.67-.45-3.67.78-.72,1-2.47,1.84-2.84,1-1.46,2.62-3.32,4.35-3.59,1.65-.9,2.62-2.17,4.56-2.17A36.37,36.37,0,0,0,361,54.54c1.16-.75,1.21-3.42,2.65-3.27,1.21-1.72,3.46-1.93,4.53-4.14.14-.59.88.19.79-.72,2.22.12,2.91-3.36,4.83-3.57.15-1.67,1.63-2,2.19-2.85.54,0,1-.29,1.74.41.9,1.8-.33,1.92-.48,2.9C376.52,42.69,377,44.12,376.42,44Z"/><path d="M350.88,54.59c2.65-6.61,8.44-9.26,12.6-14.48,2.17-2,3.57-5,5.82-6.59.35-.07.41.49.55.7-3.33,4.69-7.6,7.52-10.72,12.37-.29-.15-.6.5-.69.84-1.34,1.5-3.08,2.94-4,4.49A20.34,20.34,0,0,1,350.88,54.59Z"/></svg>