<svg id="Group_197" data-name="Group 197" xmlns="http://www.w3.org/2000/svg" xmlns:xlink="http://www.w3.org/1999/xlink" width="27.956" height="27.956" viewBox="0 0 27.956 27.956">
  <defs>
    <clipPath id="clip-path">
      <rect id="Rectangle_117" data-name="Rectangle 117" width="27.956" height="27.956" fill="none"/>
    </clipPath>
  </defs>
  <g id="Group_196" data-name="Group 196" transform="translate(0 0)" clip-path="url(#clip-path)">
    <path id="Path_638" data-name="Path 638" d="M27.956,13.682c0-2.542-2.475-4.732-6.28-6C20.251,3.134,17.34,0,13.978,0S7.705,3.134,6.28,7.686C2.474,8.95,0,11.139,0,13.682c0,2.5,2.387,4.66,6.084,5.933,1.341,4.906,4.372,8.342,7.893,8.342a6.019,6.019,0,0,0,3.634-1.277,12.961,12.961,0,0,0,4.26-7.065c3.7-1.274,6.084-3.435,6.084-5.933M13.978,1.232c2.654,0,4.979,2.424,6.286,6.049a25.82,25.82,0,0,0-6.286-.747,25.828,25.828,0,0,0-6.286.747C9,3.656,11.324,1.232,13.978,1.232m7.4,12.747a20.716,20.716,0,0,1-.535,4.653,23.887,23.887,0,0,1-6.867.968,23.864,23.864,0,0,1-6.885-.975,20.889,20.889,0,0,1-.517-4.647A20.661,20.661,0,0,1,7.25,8.693a23.964,23.964,0,0,1,6.728-.929,23.951,23.951,0,0,1,6.728.929,20.606,20.606,0,0,1,.674,5.286m-20.149-.3c0-1.8,1.832-3.436,4.655-4.531a22.022,22.022,0,0,0-.148,9c-2.737-1.1-4.508-2.7-4.508-4.468m15.648,12.01a4.816,4.816,0,0,1-2.9,1.035c-2.811,0-5.26-2.714-6.514-6.7a25.713,25.713,0,0,0,6.514.8,25.741,25.741,0,0,0,6.485-.795,11.2,11.2,0,0,1-3.585,5.656m5.331-7.538a22.073,22.073,0,0,0,.4-4.176,21.687,21.687,0,0,0-.541-4.828c2.824,1.1,4.657,2.734,4.657,4.531,0,1.766-1.775,3.377-4.516,4.472" transform="translate(0 0)" fill="#fff"/>
  </g>
</svg>
