<svg id="Group_201" data-name="Group 201" xmlns="http://www.w3.org/2000/svg" xmlns:xlink="http://www.w3.org/1999/xlink" width="26.764" height="19.689" viewBox="0 0 26.764 19.689">
  <defs>
    <clipPath id="clip-path">
      <rect id="Rectangle_119" data-name="Rectangle 119" width="26.764" height="19.689" fill="none"/>
    </clipPath>
  </defs>
  <g id="Group_200" data-name="Group 200" transform="translate(0 0)" clip-path="url(#clip-path)">
    <path id="Path_641" data-name="Path 641" d="M23.871,18.571H6.569A1.79,1.79,0,0,1,4.78,16.781V6.639A1.791,1.791,0,0,1,6.569,4.848h17.3A1.792,1.792,0,0,1,25.66,6.639V16.781a1.791,1.791,0,0,1-1.789,1.789M6.569,6.042a.6.6,0,0,0-.6.6V16.781a.6.6,0,0,0,.6.6h17.3a.6.6,0,0,0,.6-.6V6.639a.6.6,0,0,0-.6-.6Z" transform="translate(1.102 1.118)" fill="#fff"/>
    <path id="Path_642" data-name="Path 642" d="M4.144,13.566a.6.6,0,0,1-.6-.6V4.347a.6.6,0,0,1,.6-.6H19.06a.589.589,0,0,1,.564.433h1.21A1.786,1.786,0,0,0,19.06,2.556H4.144A1.792,1.792,0,0,0,2.355,4.347V12.97A1.792,1.792,0,0,0,4.144,14.76Z" transform="translate(0.543 0.59)" fill="#fff"/>
    <path id="Path_643" data-name="Path 643" d="M1.7,10.126a.591.591,0,0,1-.512-.58V1.791a.6.6,0,0,1,.6-.6H15.342a.6.6,0,0,1,.6.6h1.194A1.792,1.792,0,0,0,15.342,0H1.789A1.792,1.792,0,0,0,0,1.791V9.546a1.788,1.788,0,0,0,1.7,1.782Z" transform="translate(0 0)" fill="#fff"/>
  </g>
</svg>
