<svg xmlns="http://www.w3.org/2000/svg" xmlns:xlink="http://www.w3.org/1999/xlink" width="14.802" height="22.844" viewBox="0 0 14.802 22.844">
  <defs>
    <clipPath id="clip-path">
      <rect id="Rectangle_120" data-name="Rectangle 120" width="14.802" height="22.844" fill="none"/>
    </clipPath>
  </defs>
  <g id="Group_203" data-name="Group 203" transform="translate(0 0)">
    <g id="Group_202" data-name="Group 202" transform="translate(0 0)" clip-path="url(#clip-path)">
      <path id="Path_644" data-name="Path 644" d="M4.178,6.5H2.324A2.326,2.326,0,0,1,0,4.178V2.321A2.325,2.325,0,0,1,2.324,0H4.178A2.325,2.325,0,0,1,6.5,2.321V4.178A2.326,2.326,0,0,1,4.178,6.5M2.286,1.234A1.052,1.052,0,0,0,1.234,2.285v1.93A1.053,1.053,0,0,0,2.286,5.267h1.93A1.053,1.053,0,0,0,5.267,4.215V2.285A1.052,1.052,0,0,0,4.216,1.234Z" transform="translate(0 0)" fill="#fff"/>
      <path id="Path_645" data-name="Path 645" d="M10.758,6.5H8.9A2.326,2.326,0,0,1,6.58,4.178V2.321A2.325,2.325,0,0,1,8.9,0h1.854a2.325,2.325,0,0,1,2.324,2.321V4.178A2.326,2.326,0,0,1,10.758,6.5M8.866,1.234A1.052,1.052,0,0,0,7.814,2.285v1.93A1.053,1.053,0,0,0,8.866,5.267H10.8a1.053,1.053,0,0,0,1.051-1.052V2.285A1.052,1.052,0,0,0,10.8,1.234Z" transform="translate(1.721 0)" fill="#fff"/>
      <path id="Path_646" data-name="Path 646" d="M4.178,12.978H2.324A2.326,2.326,0,0,1,0,10.656V8.8A2.325,2.325,0,0,1,2.324,6.478H4.178A2.325,2.325,0,0,1,6.5,8.8v1.857a2.326,2.326,0,0,1-2.324,2.322M2.286,7.712A1.052,1.052,0,0,0,1.234,8.763v1.93a1.053,1.053,0,0,0,1.052,1.052h1.93a1.053,1.053,0,0,0,1.051-1.052V8.763A1.052,1.052,0,0,0,4.216,7.712Z" transform="translate(0 1.694)" fill="#fff"/>
      <path id="Path_647" data-name="Path 647" d="M10.758,12.978H8.9A2.326,2.326,0,0,1,6.58,10.656V8.8A2.325,2.325,0,0,1,8.9,6.478h1.854A2.325,2.325,0,0,1,13.082,8.8v1.857a2.326,2.326,0,0,1-2.324,2.322M8.866,7.712A1.052,1.052,0,0,0,7.814,8.763v1.93a1.053,1.053,0,0,0,1.052,1.052H10.8a1.053,1.053,0,0,0,1.051-1.052V8.763A1.052,1.052,0,0,0,10.8,7.712Z" transform="translate(1.721 1.694)" fill="#fff"/>
      <path id="Path_648" data-name="Path 648" d="M4.178,19.456H2.324A2.326,2.326,0,0,1,0,17.134V15.277a2.325,2.325,0,0,1,2.324-2.321H4.178A2.325,2.325,0,0,1,6.5,15.277v1.857a2.326,2.326,0,0,1-2.324,2.322M2.286,14.19a1.052,1.052,0,0,0-1.052,1.051v1.93a1.053,1.053,0,0,0,1.052,1.052h1.93a1.053,1.053,0,0,0,1.051-1.052v-1.93A1.052,1.052,0,0,0,4.216,14.19Z" transform="translate(0 3.388)" fill="#fff"/>
      <path id="Path_649" data-name="Path 649" d="M10.758,19.456H8.9A2.326,2.326,0,0,1,6.58,17.134V15.277A2.325,2.325,0,0,1,8.9,12.956h1.854a2.325,2.325,0,0,1,2.324,2.321v1.857a2.326,2.326,0,0,1-2.324,2.322M8.866,14.19a1.052,1.052,0,0,0-1.052,1.051v1.93a1.053,1.053,0,0,0,1.052,1.052H10.8a1.053,1.053,0,0,0,1.051-1.052v-1.93A1.052,1.052,0,0,0,10.8,14.19Z" transform="translate(1.721 3.388)" fill="#fff"/>
    </g>
  </g>
</svg>
