<svg id="Group_199" data-name="Group 199" xmlns="http://www.w3.org/2000/svg" xmlns:xlink="http://www.w3.org/1999/xlink" width="28.97" height="19.738" viewBox="0 0 28.97 19.738">
  <defs>
    <clipPath id="clip-path">
      <rect id="Rectangle_118" data-name="Rectangle 118" width="28.97" height="19.738" fill="none"/>
    </clipPath>
  </defs>
  <g id="Group_198" data-name="Group 198" transform="translate(0 0)" clip-path="url(#clip-path)">
    <path id="Path_639" data-name="Path 639" d="M28.97,4.784h-.006C28.894,1.644,21.649,0,14.486,0S.078,1.644.007,4.784H0l0,.027,0,.017V15.693H.02c.094,1.381,1.3,3.1,4.475,4a1.231,1.231,0,0,0,.332.047,1.21,1.21,0,0,0,.731-.247,1.2,1.2,0,0,0,.479-.961V9.478A2.126,2.126,0,0,0,4.822,7.487c-2.312-.651-3.591-1.6-3.611-2.678.039-1.517,4.648-3.6,13.275-3.6s13.234,2.085,13.275,3.6c-.02,1.076-1.3,2.027-3.611,2.678a2.126,2.126,0,0,0-1.215,1.991V18.53a1.213,1.213,0,0,0,1.208,1.208,1.246,1.246,0,0,0,.334-.047c3.177-.9,4.38-2.619,4.475-4h.018V4.829l0-.017,0-.027M1.221,15.621c.064-.671,1.057-1.594,3.6-2.363l0,5.272c-2.568-.725-3.532-1.994-3.6-2.909m3.253-6.98a1.2,1.2,0,0,1,.356.837l0,2.525a10.822,10.822,0,0,0-3.619,1.629V7.078A8.575,8.575,0,0,0,4.473,8.641m20,.009a8.655,8.655,0,0,0,3.287-1.574v6.558A10.789,10.789,0,0,0,24.143,12V9.478a1.255,1.255,0,0,1,.335-.828m-.335,9.881V13.257c2.55.772,3.544,1.695,3.608,2.364-.069.916-1.033,2.184-3.608,2.909" transform="translate(0 0)" fill="#fff"/>
    <path id="Path_640" data-name="Path 640" d="M5.885,9.413v1.226l.08-.015a40.783,40.783,0,0,1,7.162-.588,40.742,40.742,0,0,1,7.208.6l.036.007V9.413a42.329,42.329,0,0,0-7.244-.585,42.314,42.314,0,0,0-7.242.585" transform="translate(1.357 2.036)" fill="#fff"/>
  </g>
</svg>
